<?xml version="1.0" encoding="UTF-8" standalone="no"?>
<svg
   width="150"
   height="380"
   viewBox="0 0 150 380"
   version="1.1"
   xml:space="preserve"
   id="svg3"
   sodipodi:docname="Blank-dark.svg"
   inkscape:version="1.3 (0e150ed6c4, 2023-07-21)"
   xmlns:inkscape="http://www.inkscape.org/namespaces/inkscape"
   xmlns:sodipodi="http://sodipodi.sourceforge.net/DTD/sodipodi-0.dtd"
   xmlns="http://www.w3.org/2000/svg"
   xmlns:svg="http://www.w3.org/2000/svg"><sodipodi:namedview
   id="namedview3"
   pagecolor="#505050"
   bordercolor="#eeeeee"
   borderopacity="1"
   inkscape:showpageshadow="0"
   inkscape:pageopacity="0"
   inkscape:pagecheckerboard="0"
   inkscape:deskcolor="#d1d1d1"
   inkscape:zoom="2.2273864"
   inkscape:cx="120.09591"
   inkscape:cy="249.39544"
   inkscape:window-width="2560"
   inkscape:window-height="1417"
   inkscape:window-x="-8"
   inkscape:window-y="-8"
   inkscape:window-maximized="1"
   inkscape:current-layer="svg3"><inkscape:page
     x="0"
     y="0"
     width="150"
     height="380"
     id="page3"
     margin="0"
     bleed="0" /><inkscape:page
     x="160"
     y="0"
     width="793.70136"
     height="1122.52"
     id="page4" /></sodipodi:namedview>&#10;  <defs
   id="defs2">&#10;    <linearGradient
   id="bg"
   x1="60"
   y1="0"
   x2="60"
   y2="380"
   gradientUnits="userSpaceOnUse">&#10;      <stop
   offset="0"
   stop-color="#2a2a2b"
   id="stop1" />&#10;      <stop
   offset="1"
   stop-color="#171717"
   id="stop2" />&#10;    </linearGradient>&#10;  <clipPath
   clipPathUnits="userSpaceOnUse"
   id="clipPath2"><path
     d="M 0,841.89 H 595.276 V 0 H 0 Z"
     transform="translate(-531.01121,-595.21331)"
     id="path2-4" /></clipPath></defs>&#10;   <rect
   id="panel"
   style="fill:url(#bg)"
   x="0"
   y="0"
   width="150"
   height="380" />&#10;  &#10;<g
   id="layer-MC0"
   inkscape:groupmode="layer"
   inkscape:label="Layer 1"
   transform="translate(160)"><path
     id="path1"
     d="m 0,0 -5.851,-19.07 -13.212,13.61 z m -6.384,-19.975 -33.312,-32.896 0.205,-2.682 -0.676,-1.429 -1.805,1.861 -13.45,13.665 -1.771,1.829 1.523,1.085 2.52,-0.664 33.176,33.234 z m -419.833,70.16 16.842,-10.683 -16.628,-9.141 z m 17.575,-11.44 22.905,-40.829 2.646,-0.507 1.197,-1.035 -2.277,-1.242 -16.737,-9.358 -2.232,-1.223 -0.635,1.755 1.3,2.251 -23.269,40.791 z m 180.774,27.13 c -7.986,-9.723 -15.374,-19.7 -19.939,-31.565 -13.575,-35.283 -15.936,-63.778 -0.727,-90.251 3.514,-6.125 9.876,-12.109 17.866,-17.73 4.994,7.239 8.972,15.369 12.019,24 8.791,24.899 9.972,54.106 5.006,80.424 -2.37,12.565 -7.72,24.165 -14.225,35.122 M -348.016,-66.449 c 0.295,-0.334 0.571,-0.695 0.826,-1.082 12.308,-18.341 25.026,-32.453 42.193,-37.281 11.076,-3.113 23.848,-2.151 39.274,3.449 7.266,2.635 13.726,6.312 19.425,10.821 -9.982,7.378 -17.807,15.291 -22.281,23.089 -18.549,32.28 -17.359,67.037 -0.804,110.063 6.327,16.445 16.981,30.002 28.233,43.435 l -1.966,2.8 c -19.672,27.927 -49.254,55.072 -80.038,62.709 -75.873,18.803 -152.504,-38.825 -176.358,-109.203 -24.97,-73.673 8.241,-153.994 58.132,-209.113 26.565,-29.347 91.017,-91.483 132.696,-123.914 24.575,-19.125 64.28,-49.116 97.757,-79.823 l 2.14,2.26 c 44.343,46.651 97.746,84.189 140.081,132.876 34.974,40.223 63.682,82.019 85.361,130.469 26.771,59.865 33.978,110.069 4.314,162.932 -31.713,56.499 -87.935,81.496 -142.962,77.402 -36.279,-2.697 -66.029,-25.273 -90.084,-51.278 9.602,-15.188 17.808,-31.379 21.151,-49.125 7.704,-40.838 1.899,-87.236 -19.938,-120.271 14.412,-7.025 30.872,-12.472 46.819,-15.075 21.596,-3.521 42.393,-2.497 54.018,9.593 0.666,0.687 1.402,1.287 2.183,1.775 -0.205,4.96 1.605,9.984 5.416,13.731 l 40.031,39.383 25.524,-25.941 -40.031,-39.382 c -4.347,-4.279 -10.305,-5.925 -15.889,-4.95 -0.184,-0.227 -0.375,-0.441 -0.573,-0.641 -16.14,-16.786 -44.408,-21.267 -74.396,-16.379 -19.991,3.256 -40.547,10.555 -58.111,19.856 -8.974,-8.535 -19.601,-15.344 -31.963,-19.83 -20.959,-7.61 -38.371,-8.202 -53.421,-3.977 -22.019,6.195 -39.338,23.139 -55.128,46.653 -0.614,0.917 -1.078,1.896 -1.402,2.896 -5.282,0.868 -10.136,4.043 -12.951,9.071 l -27.419,49 31.761,17.769 27.419,-49 c 2.808,-5.026 2.98,-10.808 0.961,-15.767 m 138.282,-337.171 c -12.499,-15 -21.64,-30.656 -26.581,-55.489 -2.791,-14.024 2.949,-38.001 26.871,-43.067 8.7,-1.837 23.804,-0.976 32.675,9.136 6.193,7.058 8.635,18.377 5.279,35.448 -3.021,15.387 -18.521,34.221 -38.244,53.972 m -15.61,507.345 c -22.8,31.773 -57.156,61.574 -92.25,70.265 -87.307,21.636 -176.363,-43.23 -203.81,-124.213 -27.66,-81.607 7.622,-170.993 62.883,-232.056 27.154,-29.993 93.04,-93.491 135.641,-126.64 24.219,-18.849 63.502,-48.421 96.431,-78.692 -15.477,-18.266 -26.539,-36.83 -32.539,-66.991 -4.575,-22.988 5.521,-61.888 44.756,-70.188 14.684,-3.113 39.869,-0.561 54.841,16.506 9.703,11.054 15.842,28.401 10.586,55.15 -2.932,14.932 -14.575,33.151 -31.489,52.026 -4.323,4.826 -8.992,9.716 -13.922,14.634 l 2.186,2.311 c 44.576,46.895 98.21,84.689 140.77,133.634 36.496,41.976 66.397,85.63 89.016,136.193 30.174,67.485 36.81,124.101 3.373,183.686 -36.552,65.134 -101.405,93.863 -164.835,89.147 -40.348,-3 -74.265,-26.419 -101.638,-54.772"
     style="fill:#ffffff;fill-opacity:1;fill-rule:evenodd;stroke:none"
     transform="matrix(0.13249936,0,0,-0.13249936,-54.170953,155.24161)"
     clip-path="url(#clipPath2)" /></g></svg>
