<?xml version="1.0" encoding="UTF-8" standalone="no"?>
<!-- Created with Inkscape (http://www.inkscape.org/) -->

<svg
   width="30.48mm"
   height="128.5mm"
   viewBox="0 0 30.480002 128.50002"
   version="1.1"
   id="svg8"
   inkscape:version="1.3.2 (091e20e, 2023-11-25, custom)"
   sodipodi:docname="MVMNT.svg"
   xml:space="preserve"
   xmlns:inkscape="http://www.inkscape.org/namespaces/inkscape"
   xmlns:sodipodi="http://sodipodi.sourceforge.net/DTD/sodipodi-0.dtd"
   xmlns="http://www.w3.org/2000/svg"
   xmlns:svg="http://www.w3.org/2000/svg"
   xmlns:rdf="http://www.w3.org/1999/02/22-rdf-syntax-ns#"
   xmlns:cc="http://creativecommons.org/ns#"
   xmlns:dc="http://purl.org/dc/elements/1.1/"
   xmlns:serif="http://www.serif.com/"><defs
     id="defs2"><rect
       x="48.73986"
       y="101.01525"
       width="6.3134534"
       height="13.384521"
       id="rect9" /><rect
       x="6.0609153"
       y="23.233509"
       width="138.3909"
       height="57.578695"
       id="rect1" /><linearGradient
       id="_Linear1"
       x1="0"
       y1="0"
       x2="1"
       y2="0.440828"
       gradientUnits="userSpaceOnUse"
       gradientTransform="matrix(85.0395,-289.948,38.2879,643.989,0,345.878)"><stop
         offset="0"
         style="stop-color:rgb(255,176,0);stop-opacity:1"
         id="stop17" /><stop
         offset="0.25"
         style="stop-color:rgb(255,245,180);stop-opacity:1"
         id="stop18" /><stop
         offset="0.49"
         style="stop-color:rgb(255,190,35);stop-opacity:1"
         id="stop19" /><stop
         offset="0.7"
         style="stop-color:rgb(255,254,209);stop-opacity:1"
         id="stop20" /><stop
         offset="0.85"
         style="stop-color:rgb(255,238,165);stop-opacity:1"
         id="stop21" /><stop
         offset="1"
         style="stop-color:rgb(255,190,35);stop-opacity:1"
         id="stop22" /></linearGradient><linearGradient
       id="_Linear2"
       x1="0"
       y1="0"
       x2="1"
       y2="0.440828"
       gradientUnits="userSpaceOnUse"
       gradientTransform="matrix(113.421,-386.715,51.0661,858.914,0,461.312)"><stop
         offset="0"
         style="stop-color:rgb(255,176,0);stop-opacity:1"
         id="stop11" /><stop
         offset="0.25"
         style="stop-color:rgb(255,245,180);stop-opacity:1"
         id="stop12" /><stop
         offset="0.49"
         style="stop-color:rgb(255,190,35);stop-opacity:1"
         id="stop13" /><stop
         offset="0.7"
         style="stop-color:rgb(255,254,209);stop-opacity:1"
         id="stop14" /><stop
         offset="0.85"
         style="stop-color:rgb(255,238,165);stop-opacity:1"
         id="stop15" /><stop
         offset="1"
         style="stop-color:rgb(255,190,35);stop-opacity:1"
         id="stop16" /></linearGradient></defs><sodipodi:namedview
     id="base"
     pagecolor="#ffffff"
     bordercolor="#666666"
     borderopacity="1.0"
     inkscape:pageopacity="0.0"
     inkscape:pageshadow="2"
     inkscape:zoom="1.5"
     inkscape:cx="72.333333"
     inkscape:cy="261.33333"
     inkscape:document-units="mm"
     inkscape:current-layer="layer1"
     showgrid="false"
     units="mm"
     inkscape:snap-bbox="true"
     inkscape:snap-page="true"
     inkscape:bbox-nodes="false"
     inkscape:snap-bbox-edge-midpoints="false"
     inkscape:window-width="958"
     inkscape:window-height="1000"
     inkscape:window-x="953"
     inkscape:window-y="0"
     inkscape:window-maximized="0"
     inkscape:snap-bbox-midpoints="true"
     inkscape:snap-nodes="false"
     inkscape:showpageshadow="2"
     inkscape:pagecheckerboard="0"
     inkscape:deskcolor="#d1d1d1" /><metadata
     id="metadata5"><rdf:RDF><cc:Work
         rdf:about=""><dc:format>image/svg+xml</dc:format><dc:type
           rdf:resource="http://purl.org/dc/dcmitype/StillImage" /></cc:Work></rdf:RDF></metadata><g
     inkscape:groupmode="layer"
     id="layer1"
     inkscape:label="background"><g
       style="clip-rule:evenodd;fill-rule:evenodd;stroke-linejoin:round;stroke-miterlimit:2"
       id="g2"
       transform="scale(0.2687333,0.26458333)"><rect
         id="FRONT-PANEL-DESIGN-0"
         serif:id="FRONT PANEL DESIGN"
         x="0"
         y="0"
         width="113.421"
         height="485.81699"
         style="display:inline;fill:none" /><g
         clip-path="url(#_clip1)"
         id="g3">
        <g
   id="F.Mask-4">
            <path
   d="m 0,425.191 c 8.886,1.422 14.938,4.209 20.864,7.056 l 1.642,0.79 c 8.488,4.077 17.234,8.032 34.204,8.032 29.911,0 34.273,-12.286 56.711,-15.878 v 60.626 H 0 Z m 20.838,43.049 c -0.037,-0.001 -0.073,-0.001 -0.11,-0.001 -3.381,0 -6.127,2.745 -6.127,6.126 0,3.381 2.746,6.126 6.127,6.126 0.037,0 0.073,0 0.11,-10e-4 h 14.876 c 3.377,-0.005 6.116,-2.748 6.116,-6.125 0,-3.377 -2.739,-6.12 -6.116,-6.125 z M 0,381.138 l 0.023,-0.014 0.001,-5.051 c 3.548,-0.568 6.644,-1.354 9.462,-2.274 -0.011,-0.132 -0.021,-0.265 -0.028,-0.398 -2.809,0.916 -5.897,1.698 -9.434,2.265 l 0.002,-12.931 c 18.146,-2.906 24.47,-11.498 42.05,-14.677 l -0.157,-0.379 C 24.458,350.881 18.118,359.43 0.026,362.328 L 0.046,238.447 H 0 l 0.046,-0.001 v -0.027 H 0 0.046 v -0.062 h 0.002 v -0.393 c 0,-8.309 5.037,-12.591 10.23,-16.747 l 1.006,-0.804 c 5.193,-4.156 10.229,-8.438 10.229,-16.747 0,-17.153 -21.465,-17.145 -21.465,-34.298 V 169.14 H 0.046 v -0.378 H 0.023 l 0.023,-0.001 v -0.028 H 0.023 0.046 v -1.692 C 1.143,151.23 21.465,150.787 21.465,134.097 21.465,117.407 1.097,116.964 0,101.153 V 24.505 h 113.421 v 145.211 c -0.139,8.081 -5.107,12.301 -10.227,16.399 l -1.006,0.804 c -5.193,4.156 -10.23,8.438 -10.23,16.747 0,17.036 21.175,17.144 21.463,33.952 V 362.325 C 104.546,360.901 98.5,358.117 92.58,355.272 l -1.642,-0.789 c -5.592,-2.687 -11.296,-5.32 -19.39,-6.804 l -0.157,0.379 c 8.176,1.478 13.918,4.128 19.547,6.832 l 1.642,0.79 c 5.92,2.844 11.966,5.629 20.841,7.052 v 12.93 c -3.511,-0.563 -6.579,-1.339 -9.372,-2.248 -0.008,0.134 -0.017,0.267 -0.028,0.398 2.799,0.913 5.876,1.692 9.4,2.258 v 15.169 c -5.64,-1.815 -10.208,-4.299 -14.545,-6.926 -0.792,0.729 -1.657,1.38 -2.583,1.941 4.808,2.808 10.072,5.331 17.128,6.737 v 2.325 c -7.022,1.399 -12.269,3.904 -17.058,6.695 0.921,0.564 1.781,1.218 2.568,1.949 4.321,-2.615 8.875,-5.085 14.49,-6.893 v 14.379 c -3.553,0.569 -6.652,1.355 -9.472,2.277 0.016,0.13 0.031,0.261 0.045,0.393 2.807,-0.916 5.892,-1.697 9.427,-2.263 v 12.931 c -22.439,3.594 -26.803,15.878 -56.711,15.878 -16.97,0 -25.716,-3.955 -34.204,-8.033 L 20.864,431.84 C 14.939,428.993 8.888,426.207 0,424.783 v -12.93 c 3.57,0.572 6.682,1.363 9.511,2.29 0.013,-0.132 0.028,-0.263 0.044,-0.393 C 6.713,412.817 3.588,412.02 0,411.446 v -14.379 c 5.638,1.815 10.206,4.298 14.543,6.925 0.784,-0.733 1.641,-1.388 2.559,-1.955 C 12.3,399.235 7.042,396.719 0,395.316 v -2.326 c 7.077,-1.41 12.352,-3.944 17.172,-6.762 -0.923,-0.563 -1.786,-1.216 -2.575,-1.947 -4.352,2.639 -8.935,5.135 -14.597,6.958 z m 75.032,44.211 c -4.966,1.208 -10.846,1.976 -18.322,1.976 -7.439,0 -13.299,-0.761 -18.248,-1.958 -0.086,0.116 -0.174,0.23 -0.263,0.343 5.004,1.235 10.939,2.022 18.511,2.022 7.61,0 13.565,-0.795 18.584,-2.04 -0.089,-0.113 -0.176,-0.227 -0.262,-0.343 z M 25.498,404.041 c 6.47,0 11.723,5.253 11.723,11.722 0,6.47 -5.253,11.723 -11.723,11.723 -6.47,0 -11.722,-5.253 -11.722,-11.723 0,-6.469 5.252,-11.722 11.722,-11.722 z m 62.419,0 c 6.47,0 11.723,5.253 11.723,11.722 0,6.47 -5.253,11.723 -11.723,11.723 -6.47,0 -11.722,-5.253 -11.722,-11.723 0,-6.469 5.252,-11.722 11.722,-11.722 z m -15.973,10.09 c -4.283,1.066 -9.242,1.711 -15.234,1.711 -5.95,0 -10.882,-0.636 -15.144,-1.689 0.052,0.529 0.079,1.064 0.079,1.605 0,0.337 -0.011,0.672 -0.031,1.004 4.33,0.93 9.274,1.478 15.096,1.478 5.861,0 10.831,-0.555 15.183,-1.497 -0.02,-0.326 -0.03,-0.654 -0.03,-0.985 0,-0.549 0.027,-1.092 0.081,-1.627 z m 2.72,-32.592 c -4.113,-1.885 -8.994,-3.291 -15.721,-3.546 l -0.775,1.864 c 10.171,0.28 15.639,3.495 20.952,6.805 l 1.075,0.671 c 5.372,3.347 10.902,6.597 21.293,6.814 h 1.117 c -0.269,0 -0.534,0.002 -0.793,0.006 0.259,0.004 0.524,0.006 0.793,0.006 h -1.117 c -21.842,0.457 -22.204,14.31 -44.778,14.31 -22.574,0 -22.936,-13.853 -44.777,-14.31 h -1.117 c 0.268,0 0.534,-0.002 0.793,-0.006 -0.259,-0.004 -0.525,-0.006 -0.793,-0.006 h 1.117 C 33.309,393.7 34.111,380.421 55.299,379.856 l -0.776,-1.864 c -6.682,0.248 -11.545,1.63 -15.641,3.49 -2.7,3.986 -7.138,6.7 -12.224,7.051 -5.147,2.949 -11.069,5.413 -20.622,5.613 H 4.772 c 0.304,0 0.604,0.003 0.898,0.007 -0.294,0.004 -0.594,0.007 -0.898,0.007 h 1.264 c 9.452,0.197 15.35,2.612 20.458,5.519 5.205,0.305 9.749,3.087 12.469,7.182 4.517,2.039 9.966,3.493 17.747,3.493 7.856,0 13.335,-1.482 17.872,-3.55 2.708,-4.038 7.195,-6.787 12.334,-7.119 5.11,-2.909 11.009,-5.327 20.469,-5.525 h 1.263 c -0.303,0 -0.604,-0.003 -0.897,-0.007 0.293,-0.004 0.594,-0.007 0.897,-0.007 h -1.263 c -9.562,-0.199 -15.486,-2.668 -20.636,-5.621 -5.019,-0.376 -9.399,-3.057 -12.085,-6.986 z m -17.954,1.767 c 5.987,0 10.847,4.861 10.847,10.847 0,5.986 -4.86,10.847 -10.847,10.847 -5.986,0 -10.846,-4.861 -10.846,-10.847 0,-5.986 4.86,-10.847 10.846,-10.847 z m 31.212,-22.483 c 6.471,0 11.725,5.254 11.725,11.725 0,6.471 -5.254,11.725 -11.725,11.725 -6.471,0 -11.725,-5.254 -11.725,-11.725 0,-6.471 5.254,-11.725 11.725,-11.725 z m -62.419,0.005 c 6.47,0 11.722,5.252 11.722,11.722 0,6.47 -5.252,11.723 -11.722,11.723 -6.47,0 -11.723,-5.253 -11.723,-11.723 0,-6.47 5.253,-11.722 11.723,-11.722 z m 46.385,10.734 c -2.93,-0.634 -6.143,-1.093 -9.72,-1.325 l -0.979,2.355 c 4.055,0.237 7.595,0.796 10.764,1.586 -0.06,-0.563 -0.09,-1.135 -0.09,-1.714 0,-0.303 0.008,-0.604 0.025,-0.902 z m -30.331,2.594 c 3.156,-0.781 6.683,-1.333 10.72,-1.567 l -0.979,-2.354 c -3.56,0.228 -6.76,0.681 -9.679,1.309 0.017,0.304 0.026,0.611 0.026,0.92 0,0.572 -0.03,1.137 -0.088,1.692 z m 34.221,-12.213 c -0.096,0.111 -0.19,0.223 -0.283,0.336 -2.785,-0.7 -5.858,-1.261 -9.343,-1.624 l 0.163,-0.39 c 3.535,0.376 6.646,0.956 9.463,1.678 z m -37.773,0.327 c -0.093,-0.113 -0.187,-0.225 -0.282,-0.335 2.807,-0.718 5.907,-1.295 9.429,-1.67 l 0.162,0.39 c -3.471,0.362 -6.534,0.92 -9.309,1.615 z M 19.67,325.106 v -0.049 c 0,-1.528 3.105,-1.528 3.105,-3.056 0,-1.529 -3.105,-1.528 -3.105,-3.057 v -0.048 l -3.105,3.105 z M 92.412,323.2 c 0.725,0.359 1.407,0.74 1.407,1.456 v 0.049 l 3.105,-3.105 -3.105,-3.105 v 0.048 c 0,0.716 -0.682,1.097 -1.407,1.457 l -0.291,0.143 c -0.725,0.36 -1.407,0.74 -1.407,1.457 0,0.716 0.682,1.097 1.407,1.456 z M 56.71,294.512 c 7.512,0 13.611,6.099 13.611,13.61 0,7.512 -6.099,13.611 -13.611,13.611 -7.512,0 -13.61,-6.099 -13.61,-13.611 0,-7.511 6.098,-13.61 13.61,-13.61 z m -37.04,24.335 c 0,-1.528 3.105,-1.528 3.105,-3.056 0,-1.529 -3.105,-1.528 -3.105,-3.057 v -0.048 l -3.105,3.105 3.105,3.105 z m 74.149,-9.668 3.105,-1.37 -3.105,-1.735 v 0.049 c 0,1.19 -3.105,0.837 -3.105,1.677 0,0.84 3.105,0.227 3.105,1.379 0,1.529 -3.105,1.412 -3.105,2.94 0,1.529 3.105,4.798 3.105,6.327 v 0.049 l 3.105,-6.384 z m -74.149,3.458 c 0,-1.529 3.105,-1.528 3.105,-3.056 0,-1.529 -3.105,-1.528 -3.105,-3.057 v -0.049 l -3.105,3.106 3.105,3.105 z m 0,-6.21 c 0,-1.529 3.105,-1.528 3.105,-3.057 0,-1.528 -3.105,-1.527 -3.105,-3.056 v -0.049 l -3.105,3.105 3.105,3.105 z m 74.149,-12.724 c 0,1.528 -3.105,1.528 -3.105,3.056 0,1.526 3.093,-0.243 3.105,1.27 v 0.009 c 0,1.528 -3.105,3.403 -3.105,4.931 0,0.717 0.682,1.097 1.407,1.457 l 0.291,0.143 c 0.725,0.36 1.407,0.74 1.407,1.457 v 0.048 l 3.105,-3.105 -3.105,-4.931 3.105,-1.279 -3.105,-3.105 z m -74.149,6.514 c 0,-1.529 3.105,-1.528 3.105,-3.057 0,-1.528 -3.105,-1.528 -3.105,-3.056 v -0.049 l -3.105,3.105 3.105,3.105 z m 5.555,-47.566 -5.545,-5.546 -5.546,5.546 z m 68.555,-5.546 c -1.618,0.021 -2.457,1.312 -3.272,2.643 l -0.159,0.26 c -0.822,1.341 -1.669,2.643 -3.312,2.643 -1.598,0 15.163,0 13.564,0 -3.392,0 -3.39,-5.546 -6.782,-5.546 z M 56.71,224.95 c 7.512,0 13.61,6.099 13.61,13.611 0,7.511 -6.098,13.61 -13.61,13.61 -7.512,0 -13.61,-6.099 -13.61,-13.61 0,-7.512 6.098,-13.611 13.61,-13.611 z m 54.046,-55.81 h -2.393 c -2.04,0.339 -3.915,0.882 -5.656,1.591 -0.52,7.426 -5.282,11.461 -10.183,15.384 l -1.006,0.804 c -5.193,4.156 -10.229,8.438 -10.229,16.747 0,16.638 20.196,17.13 21.408,32.798 2.403,0.972 5.063,1.63 8.059,1.875 v -0.375 c 0,-17.153 -21.465,-17.145 -21.465,-34.298 0,-8.309 5.037,-12.591 10.23,-16.747 l 1.006,-0.804 c 5.193,-4.156 10.229,-8.439 10.229,-16.747 z m -108.04,0 v 0.228 c 0,17.153 21.465,17.145 21.465,34.298 0,8.309 -5.037,12.591 -10.23,16.747 l -1.006,0.804 c -5.193,4.156 -10.229,8.438 -10.229,16.747 v 0.371 c 2.999,-0.25 5.66,-0.915 8.061,-1.894 0.576,-7.325 5.305,-11.33 10.171,-15.224 l 1.006,-0.804 c 5.193,-4.156 10.229,-8.438 10.229,-16.747 0,-16.685 -20.309,-17.133 -21.418,-32.933 -1.742,-0.709 -3.619,-1.253 -5.661,-1.593 z m 73.12,41.8 c 3.147,2.745 5.872,6.004 8.565,9.301 l 1.329,1.63 c 4.161,5.095 8.399,10.098 14.144,13.251 -2.226,-14.369 -21.253,-15.307 -21.253,-31.456 0,-8.309 5.037,-12.591 10.23,-16.747 l 1.006,-0.804 c 4.596,-3.679 9.071,-7.457 10.038,-14.04 -13.436,7.408 -18.626,24.969 -33.883,30.137 l 1.714,0.541 1.434,0.531 1.418,0.599 1.251,0.594 1.23,0.647 1.07,0.616 1.063,0.665 0.252,0.165 0.393,0.329 c 0.082,0.082 0.159,0.169 0.23,0.26 0.078,0.1 0.15,0.206 0.214,0.316 l 0.208,0.438 0.107,0.358 0.065,0.434 c 0.004,0.055 0.006,0.109 0.007,0.163 0.003,0.216 -0.019,0.431 -0.064,0.64 -0.011,0.05 -0.023,0.1 -0.037,0.15 l -0.188,0.497 c -0.03,0.062 -0.063,0.123 -0.098,0.183 l -0.247,0.359 z m -28.398,-8.734 c -15.242,-5.173 -20.433,-22.72 -33.86,-30.128 2.132,14.495 21.273,15.39 21.273,31.588 0,8.309 -5.037,12.591 -10.23,16.747 l -1.006,0.804 c -4.558,3.648 -8.996,7.393 -10.012,13.873 10.044,-5.542 15.478,-16.737 23.99,-24.157 l -0.19,-0.252 c -0.093,-0.115 -0.176,-0.237 -0.249,-0.363 l -0.216,-0.468 -0.106,-0.382 -0.049,-0.363 c -0.014,-0.198 -0.007,-0.398 0.021,-0.597 l 0.124,-0.514 0.057,-0.152 0.271,-0.508 0.216,-0.281 0.16,-0.169 0.359,-0.294 1.054,-0.678 1.204,-0.709 1.231,-0.656 1.256,-0.605 1.28,-0.553 1.455,-0.553 1.738,-0.564 z M 0,184.252 v 2.176 c 5.404,4.317 10.844,8.603 10.844,17.238 0,8.309 -5.037,12.591 -10.23,16.747 L 0,220.904 v 2.176 c 0.744,-0.632 1.508,-1.249 2.275,-1.863 l 1.006,-0.804 c 5.193,-4.156 10.23,-8.438 10.23,-16.747 C 13.511,193.593 6.11,189.438 0,184.252 Z m 113.421,0.043 c -0.728,0.617 -1.475,1.22 -2.225,1.82 l -1.005,0.804 c -5.193,4.156 -10.23,8.438 -10.23,16.747 0,10.043 7.358,14.203 13.46,19.37 v -2.173 c -5.385,-4.302 -10.793,-8.588 -10.793,-17.197 0,-8.309 5.037,-12.591 10.23,-16.747 l 0.563,-0.45 z M 0,188.614 v 30.103 C 4.382,215.03 8.153,210.856 8.153,203.666 8.153,196.475 4.381,192.3 0,188.614 Z m 113.421,0.104 c -4.329,3.661 -8.031,7.824 -8.031,14.948 0,7.123 3.703,11.287 8.031,14.949 z M 56.71,155.329 c 7.512,0 13.61,6.098 13.61,13.61 0,7.512 -6.098,13.611 -13.61,13.611 -7.512,0 -13.61,-6.099 -13.61,-13.611 0,-7.512 6.098,-13.61 13.61,-13.61 z m 56.711,-55.531 c 0,0 0,0 0,0 0,17.154 -21.466,17.146 -21.466,34.299 0,8.309 5.037,12.591 10.23,16.747 l 1.006,0.804 c 5.193,4.156 10.23,8.438 10.23,16.747 0,8.084 0,-76.681 0,-68.597 z M 10.682,126.947 c 3.996,0 7.24,3.244 7.24,7.24 0,3.996 -3.244,7.24 -7.24,7.24 -3.996,0 -7.24,-3.244 -7.24,-7.24 0,-3.996 3.244,-7.24 7.24,-7.24 z m 92.057,0 c 3.995,0 7.24,3.244 7.24,7.24 0,3.996 -3.245,7.24 -7.24,7.24 -3.996,0 -7.241,-3.244 -7.241,-7.24 0,-3.996 3.245,-7.24 7.241,-7.24 z M 56.71,85.708 c 7.512,0 13.61,6.098 13.61,13.61 0,7.512 -6.098,13.611 -13.61,13.611 -7.512,0 -13.61,-6.099 -13.61,-13.611 0,-7.512 6.098,-13.61 13.61,-13.61 z m 42.284,-5.639 c 2.647,16.388 -8.898,26.957 -8.423,27.52 0.474,0.564 14.218,-10.161 10.968,-28.476 l 2.254,1.319 c 0.635,0.372 1.453,0.159 1.825,-0.477 0.372,-0.635 0.158,-1.453 -0.477,-1.824 l -6.034,-3.534 -3.533,6.034 c -0.372,0.635 -0.159,1.453 0.477,1.825 0.635,0.372 1.452,0.158 1.824,-0.477 z M 11.928,79.113 c -3.251,18.315 10.494,29.04 10.968,28.476 0.474,-0.563 -11.07,-11.132 -8.423,-27.52 l 1.118,1.91 c 0.372,0.635 1.19,0.849 1.825,0.477 0.636,-0.372 0.849,-1.19 0.477,-1.825 L 14.36,74.597 8.326,78.131 c -0.635,0.371 -0.849,1.189 -0.477,1.824 0.372,0.636 1.19,0.849 1.825,0.477 z"
   id="path1" />
        </g>
        <g
   id="F.Cu-6">
            <path
   d="M 113.421,485.817 H 0 113.421 V 461.312 H 0.046 v -1.582 h 113.375 v -34.539 c -18.922,3.03 -24.989,12.241 -44.364,15.054 l -1.123,0.154 -1.12,0.135 -1.149,0.122 -1.18,0.107 -1.211,0.091 -1.244,0.077 -1.277,0.06 -1.312,0.043 -1.347,0.026 -1.384,0.009 -0.789,-0.002 c -0.262,-0.002 -0.521,-0.005 -0.778,-0.009 -0.515,-0.008 -1.022,-0.019 -1.52,-0.034 -1.2,-0.036 -2.356,-0.093 -3.469,-0.17 -0.278,-0.019 -0.554,-0.039 -0.827,-0.06 l -0.679,-0.056 c -0.448,-0.039 -0.891,-0.081 -1.328,-0.126 l -0.649,-0.07 c -0.646,-0.073 -1.277,-0.152 -1.894,-0.238 -0.691,-0.096 -1.364,-0.2 -2.022,-0.313 -0.909,-0.154 -1.788,-0.322 -2.642,-0.504 l -0.963,-0.213 c -0.511,-0.118 -1.013,-0.24 -1.505,-0.366 -0.931,-0.239 -1.829,-0.493 -2.7,-0.76 l -1.104,-0.351 -1.065,-0.36 c -1.141,-0.397 -2.237,-0.815 -3.302,-1.249 -0.717,-0.292 -1.42,-0.591 -2.112,-0.895 -0.171,-0.075 -0.341,-0.15 -0.51,-0.226 -0.952,-0.425 -1.886,-0.859 -2.811,-1.297 -0.514,-0.244 -1.025,-0.488 -1.535,-0.733 l -1.642,-0.79 -1.113,-0.533 C 14.171,429.057 8.332,426.525 0,425.191 v -0.408 c 0.684,0.11 1.352,0.228 2.004,0.353 l 0.042,0.008 c 7.265,1.399 12.594,3.729 17.705,6.163 l 1.113,0.533 c 0,0 1.642,0.789 1.642,0.789 0.795,0.382 1.593,0.763 2.401,1.141 l 0.81,0.375 c 0.244,0.113 0.49,0.224 0.736,0.335 0.314,0.142 0.63,0.283 0.95,0.424 0.719,0.315 1.45,0.626 2.197,0.928 1.037,0.42 2.104,0.826 3.214,1.211 l 1.171,0.394 0.96,0.303 0.308,0.094 c 0.862,0.259 1.75,0.506 2.67,0.738 0.616,0.154 1.245,0.302 1.888,0.442 0.804,0.176 1.631,0.34 2.485,0.491 l 0.671,0.115 1.199,0.189 0.549,0.079 c 0.964,0.135 1.96,0.254 2.992,0.355 0.751,0.074 1.52,0.139 2.31,0.195 l 0.699,0.046 c 1.88,0.116 3.873,0.178 5.994,0.178 l 1.384,-0.009 1.347,-0.026 1.311,-0.044 1.278,-0.06 1.243,-0.076 1.212,-0.092 1.18,-0.106 1.149,-0.122 1.12,-0.135 1.627,-0.229 1.26,-0.205 1.444,-0.265 0.916,-0.186 0.444,-0.096 c 15.905,-3.475 22.447,-11.45 39.796,-14.227 z M 75.162,425.521 c 0.044,0.058 0.088,0.115 0.132,0.171 -2.629,0.652 -5.516,1.181 -8.763,1.536 l -1.318,0.133 c -0.688,0.064 -1.393,0.12 -2.115,0.167 l -0.373,0.025 c -0.622,0.038 -1.257,0.071 -1.904,0.097 l -0.662,0.025 c -0.459,0.016 -0.925,0.028 -1.397,0.037 -0.442,0.009 -0.889,0.015 -1.343,0.018 l -0.709,0.002 c -0.448,0 -0.891,-0.003 -1.328,-0.008 -0.56,-0.007 -1.111,-0.019 -1.653,-0.035 l -1.101,-0.037 c -2.382,-0.097 -4.589,-0.277 -6.648,-0.529 l -0.515,-0.065 c -1.947,-0.251 -3.761,-0.566 -5.467,-0.933 l -0.539,-0.119 c -0.427,-0.095 -0.846,-0.194 -1.26,-0.296 0.089,-0.113 0.177,-0.227 0.263,-0.343 l 0.996,0.232 0.698,0.152 c 1.842,0.391 3.81,0.722 5.935,0.978 l 0.709,0.082 c 0.732,0.081 1.484,0.154 2.254,0.216 1.755,0.144 3.612,0.238 5.584,0.277 l 1.377,0.018 h 1.392 c 0.23,-10e-4 0.46,-0.003 0.687,-0.006 0.937,-0.013 1.849,-0.037 2.737,-0.074 1.059,-0.043 2.085,-0.103 3.078,-0.178 l 1.168,-0.097 1.316,-0.131 c 0.656,-0.071 1.297,-0.148 1.925,-0.233 l 0.408,-0.056 c 2.089,-0.293 4.025,-0.66 5.838,-1.086 l 0.468,-0.112 z m -3.218,-11.39 c -4.283,1.066 -9.242,1.711 -15.234,1.711 -5.95,0 -10.882,-0.636 -15.144,-1.689 0.052,0.529 0.079,1.064 0.079,1.605 0,0.337 -0.011,0.672 -0.031,1.004 4.33,0.93 9.274,1.478 15.096,1.478 5.861,0 10.831,-0.555 15.183,-1.497 -0.02,-0.326 -0.03,-0.654 -0.03,-0.985 0,-0.549 0.027,-1.092 0.081,-1.627 z M 8.977,413.971 7.816,413.615 C 5.446,412.915 2.871,412.313 0,411.853 v -0.407 c 2.373,0.38 4.544,0.857 6.564,1.407 l 1.362,0.387 1.093,0.337 0.536,0.173 -0.044,0.393 z m 94.996,-0.052 c -0.008,-0.066 -0.016,-0.131 -0.024,-0.196 l 0.532,-0.171 c 2.677,-0.848 5.609,-1.573 8.94,-2.106 v 0.407 c -0.935,0.15 -1.839,0.315 -2.713,0.493 l -1.083,0.23 c -0.736,0.164 -1.452,0.337 -2.15,0.52 -0.988,0.257 -1.94,0.532 -2.861,0.822 l -0.62,0.198 z m -29.309,-32.38 c -4.113,-1.885 -8.994,-3.291 -15.721,-3.546 l -0.775,1.864 c 10.171,0.28 15.639,3.495 20.952,6.805 l 1.075,0.671 c 5.372,3.347 10.902,6.597 21.293,6.814 h 1.117 c -0.269,0 -0.534,0.002 -0.793,0.006 0.259,0.004 0.524,0.006 0.793,0.006 h -1.117 c -21.842,0.457 -22.204,14.31 -44.778,14.31 -22.574,0 -22.936,-13.853 -44.777,-14.31 h -1.117 c 0.268,0 0.534,-0.002 0.793,-0.006 -0.259,-0.004 -0.525,-0.006 -0.793,-0.006 h 1.117 C 33.309,393.7 34.111,380.421 55.299,379.856 l -0.776,-1.864 c -6.682,0.248 -11.545,1.63 -15.641,3.49 -2.7,3.986 -7.138,6.7 -12.224,7.051 -5.147,2.949 -11.069,5.413 -20.622,5.613 H 4.772 c 0.304,0 0.604,0.003 0.898,0.007 -0.294,0.004 -0.594,0.007 -0.898,0.007 h 1.264 c 9.452,0.197 15.35,2.612 20.458,5.519 5.205,0.305 9.749,3.087 12.469,7.182 4.517,2.039 9.966,3.493 17.747,3.493 7.856,0 13.335,-1.482 17.872,-3.55 2.708,-4.038 7.195,-6.787 12.334,-7.119 5.11,-2.909 11.009,-5.327 20.469,-5.525 h 1.263 c -0.303,0 -0.604,-0.003 -0.897,-0.007 0.293,-0.004 0.594,-0.007 0.897,-0.007 h -1.263 c -9.562,-0.199 -15.486,-2.668 -20.636,-5.621 -5.019,-0.376 -9.399,-3.057 -12.085,-6.986 z M 0,395.316 c 7.042,1.403 12.3,3.919 17.102,6.721 -0.918,0.567 -1.775,1.222 -2.559,1.955 C 10.206,401.365 5.638,398.882 0,397.067 Z m 113.421,0 v 1.751 c -5.615,1.808 -10.169,4.278 -14.49,6.893 -0.787,-0.731 -1.647,-1.385 -2.568,-1.949 4.789,-2.791 10.036,-5.296 17.058,-6.695 z m -0.33,-2.392 c -6.89,-1.418 -12.065,-3.906 -16.798,-6.67 0.926,-0.561 1.791,-1.212 2.583,-1.941 4.337,2.627 8.905,5.111 14.545,6.926 v 1.752 z M 0,391.239 c 5.662,-1.823 10.245,-4.319 14.597,-6.958 0.789,0.731 1.652,1.384 2.575,1.947 C 12.352,389.046 7.077,391.58 0,392.99 Z M 0.024,376.074 0.023,381.124 0,381.138 V 223.08 c 0.744,-0.632 1.508,-1.249 2.275,-1.863 l 1.006,-0.804 c 5.193,-4.156 10.23,-8.438 10.23,-16.747 C 13.511,193.593 6.11,189.438 0,184.252 v -83.099 c 1.097,15.811 21.465,16.254 21.465,32.944 0,16.69 -20.322,17.133 -21.419,32.944 v 1.692 H 0.023 0.046 v 0.028 l -0.023,0.001 h 0.023 v 0.378 h 0.002 v 0.228 c 0,17.153 21.465,17.145 21.465,34.298 0,8.309 -5.036,12.591 -10.229,16.747 l -1.006,0.804 c -5.193,4.156 -10.23,8.438 -10.23,16.747 v 0.393 H 0.046 v 0.062 H 0 0.046 v 0.027 L 0,238.447 h 0.046 l -0.02,123.881 c 18.092,-2.898 24.432,-11.447 41.893,-14.649 l 0.157,0.379 c -1.099,0.199 -2.155,0.419 -3.17,0.657 -4.827,1.131 -8.79,2.679 -12.491,4.352 l -1.275,0.585 c -7.455,3.469 -14.111,7.321 -25.114,9.084 l -0.002,12.93 c 3.537,-0.567 6.625,-1.349 9.434,-2.265 l 0.028,0.399 c -2.817,0.92 -5.913,1.706 -9.462,2.274 z m 113.397,-0.004 c -0.832,-0.133 -1.638,-0.279 -2.422,-0.435 l -1.362,-0.287 -1.187,-0.276 -1.481,-0.381 -1.445,-0.41 -1.017,-0.312 -0.486,-0.156 0.028,-0.399 c 2.793,0.909 5.861,1.685 9.372,2.248 z m -41.533,-4.508 c -2.93,-0.634 -6.143,-1.093 -9.72,-1.325 l -0.979,2.355 c 4.055,0.237 7.595,0.796 10.764,1.586 -0.06,-0.563 -0.09,-1.135 -0.09,-1.714 0,-0.303 0.008,-0.604 0.025,-0.902 z m -30.331,2.594 c 3.156,-0.781 6.683,-1.333 10.72,-1.567 l -0.979,-2.354 c -3.56,0.228 -6.76,0.681 -9.679,1.309 0.017,0.304 0.026,0.611 0.026,0.92 0,0.572 -0.03,1.137 -0.088,1.692 z m 71.864,-11.424 -1.23,-0.209 -1.584,-0.305 -1.666,-0.367 -1.688,-0.421 -1.853,-0.524 -1.99,-0.634 -1.675,-0.591 -1.22,-0.464 -1.191,-0.477 -1.166,-0.49 -1.144,-0.501 -1.684,-0.766 -1.645,-0.774 c -0.369,-0.176 -0.738,-0.352 -1.105,-0.529 l -1.642,-0.79 -1.181,-0.565 c -0.585,-0.278 -1.173,-0.555 -1.767,-0.829 -0.62,-0.287 -1.245,-0.57 -1.88,-0.85 -0.445,-0.196 -0.895,-0.39 -1.35,-0.58 -3.608,-1.516 -7.557,-2.869 -12.351,-3.815 l -1.018,-0.193 0.157,-0.379 0.408,0.076 c 6.03,1.146 10.729,2.932 15.067,4.891 l 1.277,0.586 1.587,0.748 1.051,0.503 1.642,0.789 1.127,0.54 c 5.571,2.652 11.402,5.179 19.714,6.513 z m -47.106,-2.467 c 2.376,0.253 4.561,0.598 6.593,1.017 0.991,0.203 1.946,0.425 2.87,0.661 -0.096,0.111 -0.19,0.223 -0.283,0.336 -0.348,-0.088 -0.7,-0.173 -1.058,-0.256 -0.357,-0.083 -0.719,-0.164 -1.086,-0.242 l -0.555,-0.116 c -1.444,-0.294 -2.965,-0.552 -4.577,-0.765 l -1.07,-0.134 c -0.328,-0.039 -0.661,-0.076 -0.997,-0.111 z m -19.163,0 0.162,0.39 c -3.469,0.362 -6.531,0.92 -9.309,1.615 -0.093,-0.113 -0.187,-0.225 -0.282,-0.335 2.522,-0.645 5.281,-1.177 8.37,-1.549 0.348,-0.043 0.702,-0.083 1.059,-0.121 z M 19.67,318.944 v -0.048 l -3.105,3.105 3.105,3.105 v -0.049 c 0,-1.528 3.105,-1.528 3.105,-3.056 l -0.019,-0.199 -0.035,-0.133 -0.072,-0.162 -0.104,-0.157 -0.202,-0.211 -0.689,-0.449 -1.025,-0.523 -0.461,-0.305 -0.219,-0.208 -0.134,-0.184 -0.071,-0.139 -0.055,-0.185 z m 77.254,2.656 -3.105,-3.105 v 0.048 c 0,0.109 -0.016,0.21 -0.045,0.304 -0.079,0.256 -0.256,0.462 -0.489,0.642 -0.237,0.185 -0.532,0.341 -0.837,0.492 l -0.327,0.162 c -0.234,0.116 -0.463,0.234 -0.666,0.365 l -0.309,0.229 c -0.021,0.019 -0.041,0.038 -0.061,0.057 -0.109,0.104 -0.198,0.218 -0.262,0.345 l -0.026,0.054 c -0.053,0.123 -0.083,0.258 -0.083,0.407 0,0.079 0.009,0.155 0.025,0.227 l 0.056,0.174 0.099,0.181 0.114,0.145 c 0.17,0.187 0.4,0.345 0.656,0.489 l 1.274,0.662 c 0.166,0.098 0.319,0.201 0.449,0.316 l 0.178,0.181 0.107,0.149 0.083,0.173 c 0.042,0.11 0.064,0.229 0.064,0.359 v 0.049 z M 19.67,312.734 v -0.048 l -3.105,3.105 3.105,3.105 v -0.049 c 0,-0.669 0.594,-1.045 1.263,-1.384 l 0.289,-0.144 c 0.776,-0.382 1.553,-0.764 1.553,-1.528 0,-1.529 -3.105,-1.528 -3.105,-3.057 z m 77.254,-4.925 -3.105,-1.735 v 0.049 c 0,1.19 -3.105,0.837 -3.105,1.677 0,0.84 3.105,0.227 3.105,1.379 0,1.529 -3.105,1.412 -3.105,2.94 0,0.669 0.594,1.671 1.263,2.715 l 0.579,0.898 c 0.669,1.043 1.263,2.045 1.263,2.714 v 0.049 l 3.105,-6.384 -3.105,-2.932 z M 19.67,306.524 v -0.049 l -3.105,3.106 3.105,3.105 v -0.049 c 0,-0.669 0.594,-1.045 1.263,-1.384 l 0.289,-0.144 c 0.776,-0.382 1.553,-0.764 1.553,-1.528 0,-1.529 -3.105,-1.528 -3.105,-3.057 z m 0,-6.21 v -0.049 l -3.105,3.105 3.105,3.105 v -0.048 c 0,-0.669 0.594,-1.045 1.263,-1.384 l 0.289,-0.144 c 0.776,-0.382 1.553,-0.764 1.553,-1.529 0,-1.528 -3.105,-1.527 -3.105,-3.056 z m 77.254,-3.555 -3.105,-3.105 -0.009,0.185 -0.043,0.191 -0.078,0.173 -0.149,0.209 -0.274,0.252 -0.67,0.402 -1.078,0.562 -0.346,0.246 -0.188,0.185 -0.113,0.153 -0.08,0.155 -0.044,0.131 -0.031,0.192 c -10e-4,0.022 -0.002,0.046 -0.002,0.069 0,0.572 0.435,0.681 0.979,0.673 l 0.138,-0.004 c 0.887,-0.039 1.981,-0.298 1.988,0.601 l -0.019,0.222 -0.081,0.292 -0.294,0.56 -0.434,0.581 -1.345,1.515 -0.6,0.802 -0.206,0.399 -0.091,0.279 -0.033,0.221 -0.002,0.069 c 0,0.076 0.008,0.148 0.023,0.217 0.019,0.093 0.052,0.181 0.095,0.263 l 0.136,0.201 0.024,0.028 c 0.171,0.196 0.408,0.359 0.672,0.508 0.146,0.083 0.301,0.162 0.457,0.24 l 0.69,0.35 0.127,0.072 c 0.166,0.097 0.319,0.201 0.449,0.316 l 0.178,0.181 0.088,0.121 c 0.105,0.162 0.166,0.346 0.166,0.56 v 0.048 l 3.105,-3.105 -3.105,-4.931 z M 19.67,294.104 v -0.049 l -3.105,3.105 3.105,3.105 v -0.048 c 0,-0.669 0.595,-1.045 1.264,-1.385 0.859,-0.436 1.841,-0.812 1.841,-1.672 0,-1.528 -3.105,-1.528 -3.105,-3.056 z m 0.01,-46.999 -5.546,5.546 h 11.091 z m 74.149,0 -0.529,0.046 -0.467,0.133 -0.381,0.185 -0.443,0.316 -0.583,0.606 -0.515,0.716 -0.899,1.439 -0.506,0.723 -0.467,0.527 -0.417,0.35 -0.466,0.27 -0.456,0.157 -0.507,0.074 -0.156,0.004 h 13.564 l -0.527,-0.048 -0.473,-0.137 -0.482,-0.25 -0.476,-0.379 -0.47,-0.517 -0.48,-0.67 -0.188,-0.294 c -0.253,-0.402 -0.497,-0.818 -0.754,-1.213 l -0.449,-0.639 -0.371,-0.433 -0.408,-0.373 -0.449,-0.291 -0.444,-0.184 -0.494,-0.101 z m 16.927,-77.965 h -2.393 c -2.04,0.339 -3.915,0.882 -5.656,1.591 -0.52,7.426 -5.282,11.461 -10.183,15.384 l -1.006,0.804 c -5.193,4.156 -10.229,8.438 -10.229,16.747 0,16.638 20.196,17.13 21.408,32.798 2.403,0.972 5.063,1.63 8.059,1.875 v -0.375 c 0,-17.153 -21.465,-17.145 -21.465,-34.298 0,-8.309 5.037,-12.591 10.23,-16.747 l 1.006,-0.804 c 5.193,-4.156 10.229,-8.439 10.229,-16.747 z m -108.04,0 v 0.228 c 0,17.153 21.465,17.145 21.465,34.298 0,8.309 -5.037,12.591 -10.23,16.747 l -1.006,0.804 c -5.193,4.156 -10.229,8.438 -10.229,16.747 v 0.371 c 2.999,-0.25 5.66,-0.915 8.061,-1.894 0.576,-7.325 5.305,-11.33 10.171,-15.224 l 1.006,-0.804 c 5.193,-4.156 10.229,-8.438 10.229,-16.747 0,-16.685 -20.309,-17.133 -21.418,-32.933 -1.742,-0.709 -3.619,-1.253 -5.661,-1.593 z m 110.705,0.576 v 14.579 c -0.728,0.617 -1.475,1.22 -2.225,1.82 l -1.005,0.804 c -5.193,4.156 -10.23,8.438 -10.23,16.747 0,10.043 7.358,14.203 13.46,19.37 v 14.582 c -0.288,-16.808 -21.463,-16.916 -21.463,-33.952 0,-8.309 5.037,-12.591 10.23,-16.747 l 1.006,-0.804 c 5.12,-4.098 10.088,-8.318 10.227,-16.399 z m -47.409,32.496 c 3.337,0.957 6.52,2.424 9.432,4.358 0.65,0.45 1.083,1.151 1.195,1.935 0.112,0.783 -0.107,1.577 -0.605,2.192 -0.066,0.08 -0.131,0.162 -0.198,0.243 3.147,2.745 5.872,6.004 8.565,9.301 l 1.329,1.63 c 4.161,5.095 8.399,10.098 14.144,13.251 -2.226,-14.369 -21.253,-15.307 -21.253,-31.456 0,-8.309 5.037,-12.591 10.23,-16.747 l 1.006,-0.804 c 4.596,-3.679 9.071,-7.457 10.038,-14.04 -13.436,7.408 -18.626,24.969 -33.883,30.137 z m -28.419,8.721 c -0.064,-0.083 -0.127,-0.167 -0.189,-0.25 -0.494,-0.61 -0.711,-1.398 -0.6,-2.175 0.112,-0.776 0.541,-1.472 1.187,-1.918 2.912,-1.95 6.102,-3.425 9.447,-4.384 -15.242,-5.173 -20.433,-22.72 -33.86,-30.128 2.132,14.495 21.273,15.39 21.273,31.588 0,8.309 -5.037,12.591 -10.23,16.747 l -1.006,0.804 c -4.558,3.648 -8.996,7.393 -10.012,13.873 10.044,-5.542 15.478,-16.737 23.99,-24.157 z M 0,218.717 v 2.187 l 0.614,-0.491 c 5.193,-4.156 10.23,-8.438 10.23,-16.747 0,-8.635 -5.44,-12.921 -10.844,-17.238 v 2.186 c 4.381,3.686 8.153,7.861 8.153,15.052 0,7.19 -3.771,11.364 -8.153,15.051 z m 113.421,2.146 v -2.248 c -4.328,-3.662 -8.031,-7.826 -8.031,-14.949 0,-7.124 3.702,-11.287 8.031,-14.948 v -2.249 l -0.563,0.45 c -5.193,4.156 -10.23,8.438 -10.23,16.747 0,8.609 5.408,12.895 10.793,17.197 z m 0,-121.065 c 0,0 0,0 0,0 0,17.154 -21.466,17.146 -21.466,34.299 0,8.309 5.037,12.591 10.23,16.747 l 1.006,0.804 c 5.193,4.156 10.23,8.438 10.23,16.747 0,8.084 0,-76.681 0,-68.597 z M 10.682,126.947 c 3.996,0 7.24,3.244 7.24,7.24 0,3.996 -3.244,7.24 -7.24,7.24 -3.996,0 -7.24,-3.244 -7.24,-7.24 0,-3.996 3.244,-7.24 7.24,-7.24 z m 92.057,0 c 3.995,0 7.24,3.244 7.24,7.24 0,3.996 -3.245,7.24 -7.24,7.24 -3.996,0 -7.241,-3.244 -7.241,-7.24 0,-3.996 3.245,-7.24 7.241,-7.24 z M 17.893,80.631 14.36,74.597 8.326,78.131 c -0.635,0.371 -0.849,1.189 -0.477,1.824 0.244,0.417 0.68,0.653 1.131,0.66 h 0.064 c 0.215,-0.007 0.431,-0.066 0.63,-0.183 l 2.254,-1.319 -0.074,0.428 c -2.893,17.629 9.943,28.105 10.987,28.069 l 0.023,-0.002 c 0.014,-0.004 0.025,-0.01 0.032,-0.019 0.474,-0.563 -11.07,-11.132 -8.423,-27.52 l 1.118,1.91 c 0.245,0.417 0.681,0.652 1.131,0.659 h 0.065 c 0.214,-0.007 0.431,-0.066 0.629,-0.182 0.636,-0.372 0.849,-1.19 0.477,-1.825 z m 87.248,-2.5 -6.034,-3.534 -3.533,6.034 c -0.372,0.635 -0.159,1.453 0.477,1.825 0.218,0.128 0.458,0.186 0.694,0.182 l 0.064,-0.002 c 0.427,-0.028 0.834,-0.26 1.066,-0.657 l 1.119,-1.91 0.06,0.383 c 2.408,16.17 -8.954,26.579 -8.483,27.137 0.011,0.014 0.029,0.021 0.054,0.021 l 0.028,-0.001 c 1.233,-0.133 14.035,-10.752 10.886,-28.496 l 2.254,1.319 c 0.218,0.128 0.458,0.187 0.694,0.183 l 0.064,-0.003 c 0.428,-0.027 0.834,-0.26 1.067,-0.657 0.372,-0.635 0.158,-1.453 -0.477,-1.824 z m 8.28,-53.626 H 0 V 0 h 113.421 z m -20.746,-6.96 c 0.037,10e-4 0.073,10e-4 0.11,10e-4 3.382,0 6.127,-2.745 6.127,-6.126 0,-3.381 -2.745,-6.126 -6.127,-6.126 -0.037,0 -0.073,0 -0.11,0.001 H 77.799 c -3.377,0.005 -6.116,2.748 -6.116,6.125 0,3.377 2.739,6.12 6.116,6.125 z"
   style="fill:#ffda00"
   id="path2" />
        </g>
        <g
   id="F.SilkS-8">
            <path
   d="m 20.147,345.464 v 7.688 H 4.254 v -7.688 z m -7.181,5.49 h -1.138 c -0.343,0 -0.622,0.279 -0.622,0.622 0,0.344 0.279,0.623 0.622,0.623 h 3.263 v -3.264 c 0,-0.343 -0.278,-0.622 -0.622,-0.622 -0.343,0 -0.622,0.279 -0.622,0.622 v 1.139 l -3.667,-3.668 c -0.243,-0.242 -0.638,-0.242 -0.881,0 -0.243,0.243 -0.243,0.638 0,0.881 z m 6.78,-305.009 c -0.539,0.005 -0.936,0.135 -1.22,0.375 -0.283,0.241 -0.451,0.587 -0.551,0.996 -0.229,0.925 -0.12,2.155 -0.019,3.383 0.106,1.3 0.204,2.598 -0.043,3.571 -0.137,0.54 -0.378,0.986 -0.758,1.301 -0.38,0.313 -0.901,0.502 -1.62,0.502 -1.362,0 -2.389,-0.67 -3.24,-1.69 -0.806,-0.966 -1.453,-2.252 -2.097,-3.54 C 9.575,49.599 8.955,48.353 8.176,47.419 7.444,46.541 6.57,45.945 5.397,45.945 c -0.166,0 -0.3,-0.135 -0.3,-0.3 0,-0.166 0.134,-0.3 0.3,-0.3 1.362,0 2.389,0.669 3.24,1.69 0.806,0.966 1.453,2.252 2.097,3.54 0.623,1.244 1.243,2.49 2.022,3.423 0.732,0.879 1.606,1.475 2.779,1.475 0.547,0 0.949,-0.126 1.237,-0.365 0.287,-0.237 0.457,-0.579 0.56,-0.986 0.233,-0.919 0.126,-2.146 0.026,-3.374 -0.107,-1.298 -0.207,-2.598 0.034,-3.576 0.133,-0.542 0.37,-0.991 0.746,-1.309 0.375,-0.319 0.892,-0.513 1.606,-0.518 -0.165,10e-4 -0.299,0.136 -0.298,0.301 10e-4,0.165 0.135,0.299 0.3,0.299 z m 67.725,0 h -0.06 v -0.006 c -0.137,-0.028 -0.24,-0.149 -0.24,-0.294 0,-0.145 0.103,-0.267 0.24,0.109 L 87.41,45.345 h 0.057 z m -67.695,0 v -0.6 c 1.062,0 2.176,0.416 3.315,1.095 1.646,0.981 3.356,2.512 5.064,4.045 1.678,1.506 3.355,3.013 4.971,3.977 1.036,0.617 2.043,1.011 3.008,1.011 1.135,0 1.991,-0.558 2.709,-1.391 0.762,-0.883 1.371,-2.068 1.974,-3.27 l 0.237,-0.475 c 0.626,-1.248 1.264,-2.476 2.056,-3.394 0.836,-0.969 1.842,-1.598 3.163,-1.598 0.059,0 0.114,0.017 0.161,0.046 0.046,-0.029 0.102,-0.046 0.161,-0.046 0.893,0 1.561,0.448 2.073,1.181 0.698,0.999 1.099,2.558 1.438,4.119 0.323,1.494 0.591,2.988 1.053,3.944 0.253,0.524 0.548,0.884 0.999,0.884 0.44,0 0.697,-0.353 0.9,-0.864 0.378,-0.954 0.514,-2.446 0.701,-3.938 0.196,-1.563 0.45,-3.124 1.039,-4.125 0.439,-0.746 1.056,-1.201 1.935,-1.201 1.367,0 2.37,0.672 3.185,1.695 0.769,0.967 1.368,2.254 1.964,3.543 0.574,1.243 1.146,2.488 1.888,3.421 0.697,0.875 1.546,1.469 2.715,1.469 0.975,0 2.17,-0.396 3.499,-1.018 2.056,-0.961 4.42,-2.464 6.786,-3.97 2.39,-1.52 4.781,-3.043 6.865,-4.028 1.429,-0.675 2.719,-1.096 3.772,-1.112 -0.165,0.003 -0.297,0.138 -0.296,0.302 0.002,0.165 0.136,0.298 0.3,0.298 -0.984,0.017 -2.185,0.424 -3.519,1.055 -2.064,0.975 -4.433,2.485 -6.8,3.992 -2.389,1.52 -4.777,3.037 -6.853,4.007 -1.425,0.666 -2.709,1.074 -3.754,1.074 -1.366,0 -2.37,-0.672 -3.185,-1.696 -0.769,-0.966 -1.368,-2.253 -1.963,-3.542 -0.575,-1.244 -1.147,-2.488 -1.889,-3.421 -0.697,-0.876 -1.546,-1.469 -2.715,-1.469 -0.828,0 -1.319,0.573 -1.658,1.396 -0.382,0.929 -0.565,2.167 -0.72,3.405 -0.195,1.548 -0.347,3.094 -0.739,4.084 -0.312,0.786 -0.783,1.243 -1.458,1.243 -0.546,0 -0.98,-0.299 -1.323,-0.832 C 50.4,54.564 50.107,53.48 49.84,52.272 49.46,50.55 49.128,48.567 48.415,47.258 c -0.425,-0.78 -0.986,-1.313 -1.82,-1.313 -0.059,0 -0.115,-0.017 -0.161,-0.047 -0.047,0.03 -0.102,0.047 -0.161,0.047 -1.135,0 -1.99,0.558 -2.708,1.39 -0.763,0.884 -1.372,2.069 -1.974,3.271 l -0.238,0.475 c -0.626,1.248 -1.264,2.476 -2.056,3.393 -0.836,0.969 -1.841,1.599 -3.163,1.599 -1.062,0 -2.175,-0.416 -3.315,-1.096 -1.646,-0.981 -3.356,-2.512 -5.064,-4.045 -1.678,-1.505 -3.355,-3.013 -4.971,-3.976 -1.036,-0.618 -2.043,-1.011 -3.008,-1.011 z m -0.03,0 v -0.6 h 0.028 l 0.002,0.6 c 0,0 -0.029,0 -0.03,0 z m 73.503,4.867 c 0.135,0.291 -0.268,0.434 -0.268,0.434 0.104,0 0.201,-0.054 0.255,-0.142 0.055,-0.089 0.06,-0.199 0.013,-0.292 0.603,1.202 1.212,2.387 1.974,3.27 0.718,0.833 1.574,1.391 2.709,1.391 1.135,0 1.99,-0.558 2.708,-1.391 0.762,-0.883 1.371,-2.068 1.974,-3.27 l 0.237,-0.475 c 0.626,-1.248 1.265,-2.476 2.056,-3.394 0.836,-0.969 1.842,-1.598 3.163,-1.598 0.166,0 0.3,0.134 0.3,0.3 0,0.165 -0.134,0.3 -0.3,0.3 -1.135,0 -1.99,0.558 -2.708,1.39 -0.763,0.884 -1.371,2.069 -1.974,3.271 l -0.238,0.475 c -0.626,1.248 -1.264,2.476 -2.056,3.393 -0.836,0.969 -1.841,1.599 -3.162,1.599 -1.322,0 -2.327,-0.63 -3.163,-1.599 -0.792,-0.917 -1.43,-2.145 -2.056,-3.393 -0.002,-0.004 -0.004,-0.008 -0.006,-0.011 l -0.232,-0.464 c -0.602,-1.202 -1.211,-2.387 -1.974,-3.271 -0.718,-0.832 -1.573,-1.39 -2.708,-1.39 -0.166,0 -0.3,-0.135 -0.3,-0.3 0,-0.166 0.134,-0.3 0.3,-0.3 1.321,0 2.327,0.629 3.163,1.598 0.792,0.918 1.43,2.146 2.056,3.394 l 0.232,0.464 c 0.002,0.004 0.004,0.007 0.005,0.011 z M 10.788,34.818 c 0,0.583 -0.184,1.066 -0.553,1.448 -0.369,0.383 -0.836,0.574 -1.403,0.574 -0.566,0 -1.034,-0.191 -1.403,-0.574 -0.368,-0.382 -0.553,-0.865 -0.553,-1.448 0,-0.584 0.185,-1.064 0.553,-1.44 0.369,-0.377 0.837,-0.565 1.403,-0.565 0.567,0 1.034,0.188 1.403,0.565 0.369,0.376 0.553,0.856 0.553,1.44 z m 15.741,6.687 V 33.5 L 22.886,36.915 19.243,33.5 v 8.005 H 16.706 V 28.424 h 0.87 l 5.31,4.964 5.292,-4.964 h 0.888 v 13.081 z m 14.753,0 H 40.521 L 34.775,28.424 h 2.809 l 3.317,7.427 3.299,-7.427 h 2.809 z m 21.259,0 V 33.5 L 58.898,36.915 55.255,33.5 v 8.005 H 52.718 V 28.424 h 0.87 l 5.31,4.964 5.292,-4.964 h 0.888 v 13.081 z m 18.196,0 -7.14,-7.632 v 7.632 H 71.059 V 28.424 h 0.798 l 7.014,7.315 v -7.315 h 2.537 v 13.081 z m 6.38,-13.081 h 9.587 v 2.613 H 93.188 V 41.505 H 90.651 V 31.037 h -3.534 z m 19.349,6.394 c 0,0.583 -0.185,1.066 -0.554,1.448 -0.368,0.383 -0.836,0.574 -1.402,0.574 -0.567,0 -1.034,-0.191 -1.403,-0.574 -0.369,-0.382 -0.553,-0.865 -0.553,-1.448 0,-0.584 0.184,-1.064 0.553,-1.44 0.369,-0.377 0.836,-0.565 1.403,-0.565 0.566,0 1.034,0.188 1.402,0.565 0.369,0.376 0.554,0.856 0.554,1.44 z m -52.844,412.157 -0.031,-0.001 c -0.72,0 -1.403,0.281 -1.916,0.792 -0.513,0.502 -0.806,1.186 -0.807,1.907 -0.011,0.721 0.27,1.416 0.77,1.929 0.515,0.527 1.201,0.819 1.923,0.819 1.244,0 2.309,-0.886 2.626,-2.032 0.041,-0.149 0.01,-0.308 -0.083,-0.431 -0.094,-0.122 -0.239,-0.194 -0.393,-0.194 h -1.086 v -0.412 h 1.921 c 0,0 0,0.216 0,0.216 0,1.898 -1.363,3.235 -2.985,3.235 h -0.007 c -1.733,-0.018 -3.115,-1.406 -3.098,-3.14 0.017,-1.719 1.417,-3.1 3.135,-3.1 h 0.026 c 0.53,0.006 1.023,0.143 1.455,0.378 0,0 -0.309,0.302 -0.309,0.302 -0.35,-0.169 -0.735,-0.259 -1.141,-0.268 z m 19.783,-0.442 c 1.728,0 3.135,1.407 3.135,3.135 0,1.727 -1.407,3.135 -3.135,3.135 -1.727,0 -3.135,-1.408 -3.135,-3.135 0,-1.728 1.408,-3.135 3.135,-3.135 z m 0,0.451 c -1.482,0 -2.683,1.201 -2.683,2.684 0,1.482 1.201,2.683 2.683,2.683 1.483,0 2.684,-1.201 2.684,-2.683 0,-1.483 -1.201,-2.684 -2.684,-2.684 z m -27.166,-0.112 2.744,5.811 c 0,0 -0.456,0 -0.456,0 0,0 -1.867,-3.975 -1.867,-3.975 -0.08,-0.171 -0.25,-0.281 -0.439,-0.284 -0.188,-0.003 -0.362,0.102 -0.448,0.27 l -2.032,3.989 H 43.28 Z m -5.864,2.48 c 0.273,0 0.494,-0.221 0.494,-0.494 v -2.185 h 0.412 v 6.01 c 0,0 -0.412,0 -0.412,0 v -2.426 c 0,-0.272 -0.221,-0.493 -0.494,-0.493 h -2.589 c -0.273,0 -0.494,0.221 -0.494,0.493 v 2.426 H 36.88 v -6.01 c 0,0 0.412,0 0.412,0 v 2.185 c 0,0.273 0.221,0.494 0.494,0.494 z m 18.459,3.321 v -6.01 c 0,0 0.412,0 0.412,0 v 6.01 z m 7.564,-0.313 -0.891,-1.957 c -0.08,-0.176 -0.255,-0.289 -0.448,-0.29 -0.194,0 -0.369,0.113 -0.45,0.288 l -0.9,1.96 -2.601,-5.698 h 0.469 c -10e-4,0 1.735,3.656 1.735,3.656 0.08,0.169 0.249,0.278 0.436,0.282 0.187,0.004 0.36,-0.098 0.447,-0.264 l 0.62,-1.179 c 0.073,-0.14 0.076,-0.306 0.007,-0.447 l -1.002,-2.048 h 0.444 c 0,0 1.686,3.594 1.686,3.594 0.082,0.173 0.256,0.284 0.447,0.284 0.191,10e-4 0.365,-0.11 0.447,-0.283 l 1.696,-3.595 h 0.467 z M 20.693,437.076 v 3.844 c 0,1.061 -0.861,1.922 -1.922,1.922 H 5.63 c -1.061,0 -1.922,-0.861 -1.922,-1.922 v -3.844 c 0,-1.06 0.861,-1.922 1.922,-1.922 h 13.141 c 1.061,0 1.922,0.862 1.922,1.922 z m -5.946,2.643 v -3.538 h -1.088 v 3.546 h 0.008 c -0.008,0.28 -0.109,0.536 -0.303,0.736 -0.195,0.2 -0.443,0.304 -0.715,0.304 -0.272,0 -0.529,-0.104 -0.723,-0.304 -0.194,-0.2 -0.303,-0.464 -0.303,-0.744 v -3.538 h -1.088 v 3.546 c 0.007,1.192 0.948,2.16 2.114,2.16 1.158,0 2.106,-0.968 2.106,-2.168 z m -7.049,-3.642 c -1.555,0 -2.822,1.305 -2.822,2.905 0,1.601 1.267,2.905 2.822,2.905 1.554,0 2.821,-1.304 2.821,-2.905 0,-1.6 -1.267,-2.905 -2.821,-2.905 z m 0,1.153 c 0.94,0 1.702,0.784 1.702,1.752 0,0.969 -0.762,1.753 -1.702,1.753 -0.941,0 -1.703,-0.784 -1.703,-1.753 0,-0.968 0.762,-1.752 1.703,-1.752 z m 7.754,-1.049 v 1.121 h 1.516 v 4.489 h 1.088 v -4.489 h 1.508 v -1.121 z m 94.347,0.895 v 3.844 c 0,1.061 -0.861,1.922 -1.922,1.922 h -13.14 c -1.061,0 -1.922,-0.861 -1.922,-1.922 v -3.844 c 0,-1.06 0.861,-1.922 1.922,-1.922 h 13.14 c 1.061,0 1.922,0.862 1.922,1.922 z m -6.887,4.707 H 104 v -5.602 h -1.088 z m -2.969,-0.952 v 0.952 h 0.389 c 0.909,0 1.647,-0.752 1.647,-1.696 0,-0.545 -0.248,-1.033 -0.645,-1.345 0.179,-0.264 0.28,-0.576 0.28,-0.92 0,-0.904 -0.715,-1.641 -1.593,-1.641 h -1.485 v 3.297 h 1.78 c 0.365,0 0.669,0.305 0.669,0.681 0,0.376 -0.304,0.672 -0.669,0.672 z M 99.5,438.398 v -1.28 h 0.474 c 0.303,0 0.63,0.24 0.63,0.632 0,0.392 -0.327,0.648 -0.63,0.648 z M 57.973,406.194 c 0.109,-0.012 0.208,0.068 0.22,0.178 0.011,0.11 -0.068,0.208 -0.178,0.22 -0.404,0.043 -0.81,0.066 -1.218,0.069 -0.11,10e-4 -0.2,-0.088 -0.201,-0.198 -10e-4,-0.11 0.088,-0.201 0.198,-0.202 0.395,-0.003 0.788,-0.026 1.179,-0.067 z m 3.78,-1.035 c 0.1,-0.046 0.219,-0.002 0.265,0.098 0.046,0.101 0.002,0.22 -0.099,0.265 -0.863,0.395 -1.769,0.691 -2.699,0.883 -0.108,0.022 -0.214,-0.048 -0.237,-0.156 -0.022,-0.108 0.048,-0.214 0.156,-0.236 0.901,-0.185 1.778,-0.472 2.614,-0.854 z m -8.83,0.496 c 0.105,0.034 0.162,0.148 0.127,0.252 -0.034,0.105 -0.147,0.162 -0.252,0.128 -0.589,-0.195 -1.17,-0.436 -1.74,-0.724 -0.288,-0.146 -0.568,-0.302 -0.839,-0.466 -0.095,-0.057 -0.125,-0.18 -0.068,-0.275 0.058,-0.094 0.181,-0.124 0.275,-0.067 0.263,0.159 0.534,0.31 0.813,0.451 0.551,0.279 1.114,0.512 1.684,0.701 z m -3.475,-1.812 c 0.088,0.066 0.106,0.191 0.04,0.28 -0.066,0.088 -0.192,0.106 -0.28,0.04 -0.328,-0.245 -0.641,-0.505 -0.94,-0.777 -0.081,-0.075 -0.087,-0.202 -0.012,-0.283 0.074,-0.082 0.201,-0.087 0.282,-0.013 0.289,0.264 0.592,0.515 0.91,0.753 z m 16.378,-1.718 c 0.073,-0.083 0.199,-0.091 0.282,-0.019 0.083,0.073 0.092,0.199 0.019,0.282 -0.269,0.308 -0.552,0.601 -0.846,0.878 -0.081,0.076 -0.208,0.072 -0.283,-0.009 -0.076,-0.08 -0.072,-0.207 0.009,-0.282 0.285,-0.268 0.558,-0.552 0.819,-0.85 z m 2.067,-3.33 c 0.043,-0.102 0.16,-0.15 0.262,-0.107 0.102,0.042 0.15,0.159 0.108,0.261 -0.12,0.288 -0.252,0.574 -0.395,0.856 -0.291,0.575 -0.621,1.118 -0.984,1.627 -0.064,0.09 -0.19,0.111 -0.279,0.046 -0.09,-0.064 -0.111,-0.189 -0.047,-0.279 0.352,-0.492 0.671,-1.018 0.953,-1.574 0.139,-0.274 0.266,-0.551 0.382,-0.83 z m -21.778,1.216 c 0.053,0.097 0.018,0.218 -0.079,0.272 -0.096,0.053 -0.218,0.018 -0.271,-0.079 -0.459,-0.833 -0.822,-1.714 -1.082,-2.626 -0.03,-0.106 0.031,-0.217 0.138,-0.247 0.106,-0.03 0.217,0.031 0.247,0.137 0.251,0.883 0.603,1.737 1.047,2.543 z M 44.8,396.319 c 0.019,0.108 -0.053,0.213 -0.161,0.233 -0.109,0.019 -0.213,-0.053 -0.233,-0.161 -0.073,-0.4 -0.127,-0.803 -0.161,-1.209 -0.009,-0.11 0.073,-0.207 0.183,-0.216 0.11,-0.009 0.207,0.073 0.216,0.183 0.033,0.393 0.085,0.783 0.156,1.17 z m 24.013,-2.518 c -0.003,-0.11 0.084,-0.202 0.194,-0.206 0.111,-0.003 0.203,0.084 0.206,0.194 0.013,0.405 0.005,0.812 -0.022,1.219 -0.008,0.111 -0.103,0.194 -0.213,0.187 -0.111,-0.008 -0.194,-0.103 -0.187,-0.214 0.027,-0.394 0.034,-0.788 0.022,-1.18 z m -0.749,-3.847 c -0.038,-0.103 0.015,-0.218 0.118,-0.257 0.104,-0.038 0.219,0.015 0.257,0.119 0.329,0.889 0.557,1.814 0.678,2.758 0.014,0.109 -0.063,0.209 -0.173,0.224 -0.109,0.014 -0.21,-0.064 -0.224,-0.173 -0.117,-0.914 -0.338,-1.81 -0.656,-2.671 z m -23.109,1.289 c -0.026,0.107 -0.135,0.172 -0.242,0.146 -0.107,-0.027 -0.173,-0.136 -0.146,-0.243 0.223,-0.898 0.55,-1.785 0.986,-2.645 l 0.007,-0.016 c 0.05,-0.098 0.171,-0.137 0.269,-0.087 0.099,0.05 0.138,0.17 0.088,0.269 l -0.008,0.014 c -0.421,0.833 -0.738,1.692 -0.954,2.562 z m 1.547,-3.602 c -0.059,0.093 -0.183,0.121 -0.276,0.062 -0.093,-0.06 -0.121,-0.183 -0.062,-0.277 0.221,-0.346 0.456,-0.678 0.704,-0.995 0.069,-0.087 0.194,-0.102 0.281,-0.034 0.087,0.068 0.103,0.194 0.034,0.281 -0.24,0.307 -0.468,0.628 -0.681,0.963 z m 18.844,-1.977 c -0.077,-0.079 -0.076,-0.206 0.003,-0.283 0.079,-0.078 0.205,-0.077 0.283,0.002 0.286,0.292 0.557,0.596 0.811,0.911 0.069,0.086 0.055,0.212 -0.03,0.281 -0.086,0.07 -0.213,0.056 -0.282,-0.03 -0.246,-0.305 -0.507,-0.599 -0.785,-0.881 z m -3.164,-2.312 c -0.099,-0.05 -0.138,-0.17 -0.088,-0.269 0.05,-0.098 0.17,-0.138 0.269,-0.088 0.865,0.439 1.658,0.964 2.372,1.561 0.085,0.071 0.096,0.197 0.026,0.282 -0.071,0.085 -0.197,0.096 -0.282,0.025 -0.692,-0.577 -1.459,-1.086 -2.297,-1.511 z m -12.112,0.676 c -0.092,0.061 -0.216,0.035 -0.277,-0.058 -0.06,-0.092 -0.034,-0.216 0.058,-0.277 0.797,-0.521 1.65,-0.948 2.538,-1.275 0.103,-0.038 0.219,0.015 0.257,0.119 0.038,0.103 -0.015,0.218 -0.119,0.256 -0.86,0.317 -1.685,0.73 -2.457,1.235 z M 39.439,341.689 56.745,331.155 74.051,341.689 H 74.039 L 56.733,383.306 39.428,341.689 Z m 0.743,0.251 16.551,39.803 16.557,-39.815 -16.545,-10.07 z m 16.639,-0.184 c 0.916,-1.042 2.07,-1.92 3.483,-2.091 2.222,-0.269 4.548,0.635 5.939,2.865 1.272,2.04 1.131,4.041 0.18,6.462 -0.713,1.814 -1.692,3.397 -2.907,4.931 -1.416,1.79 -3.24,3.205 -4.73,4.926 l -0.073,0.085 c 0.181,0.165 0.353,0.329 0.513,0.492 0.625,0.636 1.064,1.257 1.191,1.777 0.229,0.932 0.041,1.551 -0.282,1.956 -0.499,0.624 -1.38,0.754 -1.901,0.669 -1.392,-0.228 -1.81,-1.579 -1.687,-2.394 0.162,-1.07 0.52,-1.74 1.035,-2.408 -1.207,-1.01 -2.636,-1.986 -3.518,-2.609 -1.551,-1.095 -3.97,-3.22 -4.973,-4.23 -2.042,-2.056 -3.427,-5.14 -2.588,-8.054 0.833,-2.891 3.858,-5.315 6.962,-4.697 1.247,0.249 2.503,1.24 3.356,2.32 z m 1.374,17.806 c -0.415,0.547 -0.711,1.113 -0.844,1.994 -0.075,0.497 0.166,1.33 1.015,1.469 0.308,0.051 0.838,-0.004 1.133,-0.374 0.206,-0.258 0.274,-0.66 0.128,-1.254 -0.131,-0.536 -0.706,-1.173 -1.432,-1.835 z m -5.408,-11.626 c 0.01,0.012 0.021,0.024 0.03,0.037 0.463,0.624 0.933,1.1 1.544,1.242 0.394,0.091 0.842,0.036 1.375,-0.185 0.251,-0.105 0.472,-0.245 0.665,-0.412 -0.363,-0.243 -0.651,-0.509 -0.821,-0.776 -0.704,-1.104 -0.719,-2.327 -0.207,-3.867 0.195,-0.588 0.548,-1.082 0.921,-1.572 l -0.073,-0.095 c -0.737,-0.95 -1.821,-1.856 -2.915,-2.074 -2.698,-0.538 -5.297,1.612 -6.021,4.125 -0.758,2.63 0.54,5.399 2.383,7.255 0.982,0.988 3.348,3.067 4.866,4.139 0.895,0.632 2.339,1.622 3.565,2.647 l 0.072,-0.083 c 1.483,-1.712 3.298,-3.118 4.707,-4.898 1.164,-1.471 2.105,-2.986 2.788,-4.725 0.844,-2.147 1.015,-3.924 -0.113,-5.733 -1.207,-1.935 -3.224,-2.722 -5.151,-2.488 -1.271,0.153 -2.28,0.995 -3.083,1.949 0.363,0.518 0.677,1.074 0.824,1.692 0.337,1.423 0.208,3.063 -0.506,4.26 0.518,0.223 1.106,0.388 1.671,0.453 0.764,0.089 1.494,0.019 1.883,-0.425 0.022,-0.025 0.047,-0.047 0.073,-0.066 -0.015,-0.174 0.041,-0.353 0.168,-0.491 l 1.343,-1.45 0.94,0.871 -1.343,1.449 c -0.146,0.157 -0.353,0.225 -0.551,0.2 -0.006,0.008 -0.012,0.016 -0.019,0.023 -0.54,0.616 -1.526,0.82 -2.588,0.697 -0.708,-0.082 -1.442,-0.305 -2.075,-0.603 -0.301,0.314 -0.664,0.571 -1.091,0.748 -0.724,0.302 -1.335,0.351 -1.871,0.227 -0.784,-0.182 -1.42,-0.749 -2.013,-1.55 -0.023,-0.031 -0.041,-0.065 -0.054,-0.099 -0.188,-0.022 -0.363,-0.126 -0.47,-0.298 l -1.044,-1.678 1.088,-0.676 1.043,1.678 c 0.107,0.172 0.122,0.375 0.06,0.552 z m 11.909,-2.171 -1.115,1.195 0.011,0.092 -0.021,0.04 -0.065,-0.051 -0.549,-0.512 0.053,-0.041 0.088,0.02 1.109,-1.207 0.669,-0.222 z m -14.184,-1.412 0.862,1.388 0.092,0.014 0.033,0.03 -0.067,0.05 -0.638,0.396 -0.025,-0.061 0.041,-0.08 -0.874,-1.387 L 49.897,344 Z m 6.282,-1.263 c -0.265,0.355 -0.508,0.717 -0.649,1.142 -0.42,1.262 -0.457,2.267 0.121,3.173 0.133,0.209 0.367,0.41 0.657,0.594 0.163,-0.263 0.29,-0.554 0.383,-0.863 0.269,-0.889 0.263,-1.918 0.045,-2.835 -0.104,-0.438 -0.311,-0.836 -0.557,-1.211 z m 1.933,39.122 c -0.109,-0.018 -0.182,-0.122 -0.164,-0.231 0.019,-0.108 0.122,-0.182 0.231,-0.164 0.921,0.156 1.836,0.417 2.728,0.79 0.102,0.043 0.15,0.16 0.108,0.262 -0.043,0.102 -0.16,0.15 -0.262,0.107 -0.864,-0.36 -1.75,-0.614 -2.641,-0.764 z m -5.074,0.228 c -0.106,0.028 -0.216,-0.036 -0.244,-0.143 -0.028,-0.107 0.036,-0.216 0.143,-0.244 0.393,-0.103 0.791,-0.187 1.193,-0.251 0.109,-0.018 0.212,0.057 0.229,0.166 0.018,0.109 -0.056,0.211 -0.165,0.229 -0.39,0.062 -0.775,0.143 -1.156,0.243 z m 55.601,-35.054 v 3.844 c 0,1.06 -0.861,1.922 -1.922,1.922 h -12.05 c -1.06,0 -1.922,-0.862 -1.922,-1.922 v -3.844 c 0,-1.061 0.862,-1.922 1.922,-1.922 h 12.05 c 1.061,0 1.922,0.861 1.922,1.922 z m -3.647,4.726 2.456,-5.609 h -1.205 l -1.414,3.185 -1.422,-3.185 h -1.205 l 2.464,5.609 z m -3.972,0 h 0.288 v -5.609 h -1.088 v 3.137 l -3.008,-3.137 h -0.342 v 5.609 h 1.088 v -3.273 z m -6.248,-0.008 h 1.088 v -5.601 h -1.088 z m -24.885,-91.344 0.799,1.387 H 92.97 c 0.011,-0.03 0.023,-0.059 0.037,-0.088 l -9.197,-9.196 c -0.117,-0.117 -0.117,-0.307 0,-0.424 l 9.797,-9.797 c 0.117,-0.117 0.307,-0.117 0.424,0 l 9.797,9.797 c 0.117,0.117 0.117,0.307 0,0.424 l -9.196,9.196 c 0.056,0.118 0.087,0.249 0.087,0.388 0,0.139 -0.031,0.271 -0.087,0.388 l 11.311,11.312 c 0.117,0.117 0.117,0.307 0,0.424 l -11.723,11.724 4.937,4.937 v 35.895 l -4.541,4.541 c 0.066,0.126 0.103,0.268 0.103,0.42 0,0.497 -0.403,0.9 -0.9,0.9 -0.392,0 -0.725,-0.251 -0.849,-0.6 H 71.128 c -0.107,0 -0.207,-0.058 -0.26,-0.151 l -0.702,-1.22 c -0.273,0.16 -0.549,0.315 -0.828,0.466 l -0.491,-0.85 c 0.455,-0.245 0.902,-0.503 1.341,-0.775 l 0.326,0.561 c 0,0 0.787,1.369 0.787,1.369 H 92.97 c 0.015,-0.042 0.032,-0.082 0.052,-0.12 l -4.541,-4.541 v -35.784 l 0.267,0.266 -0.189,-0.455 4.859,-4.859 -11.723,-11.724 c -0.117,-0.117 -0.117,-0.307 0,-0.424 l 11.312,-11.312 c -0.014,-0.028 -0.026,-0.058 -0.037,-0.088 H 71.128 c -0.107,0 -0.207,-0.057 -0.26,-0.15 l -0.703,-1.222 c -0.273,0.16 -0.549,0.315 -0.827,0.465 l -0.491,-0.85 c 0.455,-0.244 0.902,-0.502 1.341,-0.774 z m 23.737,70.531 4.385,-4.385 v -35.453 c 0,0 -4.805,-4.805 -4.805,-4.805 l -4.805,4.805 v 35.453 l 4.386,4.385 c 0.125,-0.066 0.268,-0.104 0.419,-0.104 0.152,0 0.294,0.038 0.42,0.104 z M 94.207,263.26 c -0.117,0.056 -0.249,0.088 -0.388,0.088 -0.139,0 -0.27,-0.032 -0.388,-0.088 l -11.099,11.099 11.487,11.488 11.488,-11.488 z m -0.176,2.011 8.876,8.876 c 0.117,0.117 0.117,0.307 0,0.424 l -8.876,8.876 c -0.117,0.117 -0.307,0.117 -0.424,0 l -8.876,-8.876 c -0.117,-0.117 -0.117,-0.307 0,-0.424 l 8.876,-8.876 c 0.117,-0.117 0.307,-0.117 0.424,0 z m -0.212,0.637 -8.451,8.451 8.451,8.451 8.451,-8.451 z m 0.212,2.342 5.897,5.897 c 0.117,0.117 0.117,0.307 0,0.424 l -5.897,5.897 c -0.117,0.117 -0.307,0.117 -0.424,0 l -5.897,-5.897 c -0.117,-0.117 -0.117,-0.307 0,-0.424 l 5.897,-5.897 c 0.117,-0.117 0.307,-0.117 0.424,0 z m -0.212,0.637 -5.472,5.472 c 0,0 5.472,5.472 5.472,5.472 0,0 5.472,-5.472 5.472,-5.472 z m 0.388,-7.252 c 1.769,-1.769 8.984,-8.984 8.984,-8.984 l -9.372,-9.372 -9.372,9.372 c 0,0 7.215,7.215 8.984,8.984 0.118,-0.056 0.249,-0.088 0.388,-0.088 0.139,0 0.271,0.032 0.388,0.088 z m -50.883,69.382 -0.703,1.22 c -0.053,0.093 -0.153,0.151 -0.26,0.151 H 20.519 c -0.124,0.349 -0.458,0.6 -0.849,0.6 -0.497,0 -0.901,-0.403 -0.901,-0.9 0,-0.025 0.001,-0.049 0.003,-0.072 l -4.474,-4.474 v -35.798 l 0.3,0.3 -0.212,-0.512 4.859,-4.86 L 7.34,274.767 c -0.117,-0.117 -0.117,-0.307 0,-0.424 l 11.514,-11.514 c -0.054,-0.116 -0.085,-0.245 -0.085,-0.382 0,-0.141 0.033,-0.275 0.091,-0.394 l -9.189,-9.19 c -0.117,-0.117 -0.117,-0.307 0,-0.424 l 9.796,-9.797 c 0.118,-0.117 0.308,-0.117 0.425,0 l 9.796,9.797 c 0.118,0.117 0.118,0.307 0,0.424 l -9.203,9.203 c 0.013,0.026 0.024,0.053 0.034,0.081 h 21.668 l 1.115,-1.931 c 0.439,0.272 0.886,0.53 1.341,0.774 l -0.491,0.85 c -0.279,-0.15 -0.555,-0.305 -0.828,-0.465 l -0.703,1.222 c -0.053,0.093 -0.153,0.15 -0.26,0.15 H 20.519 c -0.01,0.028 -0.021,0.055 -0.034,0.082 l 11.514,11.514 c 0.117,0.117 0.117,0.307 0,0.424 l -11.905,11.905 4.947,4.947 v 35.923 l -4.246,4.246 h 21.392 l 0.788,-1.369 0.327,-0.561 c 0.439,0.272 0.886,0.53 1.341,0.775 l -0.491,0.85 c -0.279,-0.151 -0.555,-0.306 -0.828,-0.466 z m -23.03,0.423 4.147,-4.147 c 0,0 0,-35.425 0,-35.425 l -4.771,-4.771 -4.772,4.771 v 35.425 l 4.147,4.147 c 0.162,-0.157 0.382,-0.253 0.625,-0.253 0.242,0 0.462,0.096 0.624,0.253 z m -0.23,-68.183 c -0.119,0.058 -0.253,0.091 -0.394,0.091 -0.142,0 -0.276,-0.033 -0.395,-0.091 L 7.977,274.555 19.67,286.248 31.363,274.555 Z m -0.182,2.014 8.875,8.876 c 0.118,0.117 0.118,0.307 0,0.424 l -8.875,8.876 c -0.117,0.117 -0.307,0.117 -0.424,0 l -8.876,-8.876 c -0.117,-0.117 -0.117,-0.307 0,-0.424 l 8.876,-8.876 c 0.117,-0.117 0.307,-0.117 0.424,0 z m -0.212,0.637 -8.451,8.451 8.451,8.451 8.451,-8.451 z m 0.212,2.342 5.897,5.897 c 0.117,0.117 0.117,0.307 0,0.424 l -5.897,5.897 c -0.117,0.117 -0.307,0.117 -0.424,0 l -5.897,-5.897 c -0.117,-0.117 -0.117,-0.307 0,-0.424 l 5.897,-5.897 c 0.117,-0.117 0.307,-0.117 0.424,0 z m -0.212,0.637 -5.473,5.472 c 0,0 5.473,5.472 5.473,5.472 0,0 5.472,-5.472 5.472,-5.472 z m 0.394,-7.249 c 1.765,-1.764 8.988,-8.987 8.988,-8.987 l -9.372,-9.372 -9.373,9.372 c 0,0 7.207,7.207 8.981,8.981 0.116,-0.055 0.245,-0.085 0.382,-0.085 0.141,0 0.275,0.033 0.394,0.091 z m 54.891,65.789 -0.694,-0.694 c 0.376,-0.354 0.741,-0.719 1.095,-1.095 l 0.694,0.694 c -0.354,0.376 -0.72,0.741 -1.095,1.095 z m -37.515,-1.095 0.694,-0.694 c 0.354,0.376 0.719,0.741 1.095,1.095 l -0.694,0.694 c -0.375,-0.354 -0.741,-0.719 -1.095,-1.095 z m 41.891,-4.276 -0.85,-0.49 c 0.271,-0.439 0.53,-0.887 0.774,-1.341 l 0.85,0.49 c -0.245,0.455 -0.503,0.902 -0.774,1.341 z m -45.946,-1.341 0.85,-0.49 c 0.244,0.454 0.503,0.902 0.774,1.341 l -0.85,0.49 c -0.271,-0.439 -0.529,-0.886 -0.774,-1.341 z m 48.783,-4.979 -0.948,-0.254 c 0.148,-0.494 0.282,-0.993 0.4,-1.496 l 0.948,0.254 c -0.119,0.503 -0.252,1.001 -0.4,1.496 z m -51.246,-1.496 0.948,-0.254 c 0.118,0.503 0.252,1.002 0.4,1.496 l -0.948,0.254 c -0.148,-0.495 -0.281,-0.993 -0.4,-1.496 z m 52.35,-5.343 H 82.29 c 0.016,-0.516 0.016,-1.033 0,-1.549 h 0.982 c 0.015,0.516 0.015,1.033 0,1.549 z M 30.218,307.348 H 31.2 c -0.016,0.516 -0.016,1.033 0,1.549 h -0.982 c -0.015,-0.516 -0.015,-1.033 0,-1.549 z m 52.35,-5.343 -0.948,0.254 c -0.118,-0.503 -0.252,-1.002 -0.4,-1.496 l 0.948,-0.254 c 0.148,0.494 0.281,0.993 0.4,1.496 z m -51.246,-1.496 0.948,0.254 c -0.148,0.494 -0.282,0.993 -0.4,1.496 l -0.948,-0.254 c 0.119,-0.503 0.252,-1.002 0.4,-1.496 z m 48.783,-4.98 -0.85,0.491 c -0.244,-0.454 -0.503,-0.902 -0.774,-1.341 l 0.85,-0.491 c 0.271,0.44 0.529,0.887 0.774,1.341 z m -45.946,-1.341 0.85,0.491 c -0.271,0.439 -0.53,0.887 -0.774,1.341 l -0.85,-0.491 c 0.245,-0.454 0.503,-0.901 0.774,-1.341 z m 41.891,-4.275 -0.694,0.694 c -0.354,-0.376 -0.719,-0.742 -1.095,-1.095 l 0.694,-0.694 c 0.375,0.354 0.741,0.719 1.095,1.095 z m -37.515,-1.095 0.694,0.694 c -0.376,0.353 -0.741,0.719 -1.095,1.095 l -0.694,-0.694 c 0.354,-0.376 0.72,-0.741 1.095,-1.095 z m 32.144,-3.281 -0.491,0.85 c -0.439,-0.272 -0.886,-0.53 -1.341,-0.775 l 0.491,-0.85 c 0.454,0.245 0.902,0.504 1.341,0.775 z m -26.527,-0.775 0.491,0.85 c -0.455,0.245 -0.902,0.503 -1.341,0.775 l -0.491,-0.85 c 0.439,-0.271 0.887,-0.53 1.341,-0.775 z m 36.006,-1.521 c -0.434,0.434 -0.89,0.89 -1.335,1.299 -1.046,1.046 -2.721,1.109 -3.842,0.145 -5.111,-4.244 -11.567,-6.594 -18.265,-6.594 -7.044,0 -13.807,2.598 -19.004,7.263 -1.096,1.012 -2.788,1.008 -3.879,-0.009 -0.443,-0.413 -0.915,-0.853 -1.348,-1.29 -0.573,-0.534 -0.899,-1.282 -0.899,-2.065 -10e-4,-0.784 0.323,-1.532 0.895,-2.068 6.612,-5.988 15.242,-9.343 24.235,-9.343 8.555,0 16.797,3.037 23.301,8.495 0.596,0.519 0.949,1.263 0.976,2.053 0.027,0.79 -0.276,1.555 -0.835,2.114 z m -43.575,-5.06 -2.811,2.463 3.697,4.219 0.843,-0.738 -1.54,-1.758 1.625,-1.423 -0.739,-0.843 -1.625,1.424 -0.68,-0.777 1.968,-1.724 z m 36.466,4.115 2.808,2.429 0.733,-0.847 -2.808,-2.429 z m 1.523,-1.761 2.343,2.026 0.733,-0.848 -2.343,-2.026 z m -35.557,-4.021 -0.951,0.593 2.968,4.751 2.721,-1.7 -0.589,-0.943 -1.771,1.106 z m 40.53,3.984 -2.826,-2.445 -0.733,0.848 2.826,2.445 z m -7.868,-5.661 -0.574,0.962 1.339,0.8 -2.303,3.854 0.962,0.574 2.303,-3.853 1.332,0.796 0.575,-0.962 z m -3.303,-1.397 -4.675,4.216 1.173,0.45 2.841,-2.562 0.275,3.756 1.159,0.443 -0.467,-6.186 z m -20.562,2.709 -1.326,-3.279 -1.039,0.42 1.329,3.286 0.008,-0.003 c 0.097,0.263 0.097,0.539 -0.014,0.8 -0.11,0.26 -0.309,0.453 -0.568,0.558 -0.26,0.105 -0.544,0.107 -0.804,-0.003 -0.261,-0.111 -0.464,-0.314 -0.569,-0.573 l -1.326,-3.279 -1.038,0.42 1.329,3.286 c 0.454,1.103 1.715,1.637 2.828,1.187 1.105,-0.447 1.647,-1.71 1.197,-2.823 z m 4.335,-4.075 c -0.566,-0.27 -1.226,-0.364 -1.883,-0.222 -1.564,0.34 -2.562,1.892 -2.222,3.456 0.34,1.564 1.891,2.562 3.455,2.222 0.688,-0.149 1.267,-0.537 1.672,-1.051 l -0.879,-0.653 c -0.862,1.007 -2.694,0.757 -3.028,-0.783 -0.319,-1.471 1.145,-2.46 2.358,-2.003 z m 11.747,3.572 0.606,-3.485 -1.103,-0.192 -0.608,3.493 0.008,0.001 c -0.056,0.275 -0.202,0.509 -0.434,0.672 -0.231,0.163 -0.501,0.221 -0.777,0.173 -0.276,-0.048 -0.519,-0.195 -0.681,-0.427 -0.163,-0.231 -0.228,-0.511 -0.18,-0.787 l 0.606,-3.484 -1.104,-0.192 -0.607,3.492 c -0.197,1.176 0.591,2.296 1.774,2.502 1.174,0.204 2.302,-0.582 2.508,-1.765 z m -9.751,-4.307 0.016,1.12 1.56,-0.022 0.064,4.489 1.121,-0.016 -0.065,-4.489 1.553,-0.022 -0.016,-1.121 z m -3.516,10.96 0.254,0.948 c -0.502,0.119 -1.001,0.252 -1.495,0.401 L 49.131,282.7 c 0.495,-0.148 0.994,-0.282 1.496,-0.401 z m 13.732,0.401 -0.255,0.948 c -0.494,-0.149 -0.993,-0.282 -1.495,-0.401 l 0.254,-0.948 c 0.502,0.119 1.001,0.253 1.496,0.401 z m -6.84,-1.104 v 0.981 c -0.516,-0.016 -1.032,-0.016 -1.548,0 v -0.981 c 0.516,-0.016 1.032,-0.016 1.548,0 z m 17.436,-23.811 -0.694,-0.694 c 0.376,-0.354 0.741,-0.719 1.095,-1.095 l 0.694,0.694 c -0.354,0.376 -0.72,0.741 -1.095,1.095 z m -37.515,-1.095 0.694,-0.694 c 0.354,0.376 0.719,0.741 1.095,1.095 l -0.694,0.694 c -0.375,-0.354 -0.741,-0.719 -1.095,-1.095 z m 41.891,-4.276 -0.85,-0.491 c 0.271,-0.439 0.53,-0.886 0.774,-1.341 l 0.85,0.491 c -0.245,0.454 -0.503,0.902 -0.774,1.341 z m -45.946,-1.341 0.85,-0.491 c 0.244,0.455 0.503,0.902 0.774,1.341 l -0.85,0.491 c -0.271,-0.439 -0.529,-0.887 -0.774,-1.341 z m 48.783,-4.979 -0.948,-0.254 c 0.148,-0.495 0.282,-0.994 0.4,-1.496 l 0.948,0.254 c -0.119,0.502 -0.252,1.001 -0.4,1.496 z m -51.246,-1.496 0.948,-0.254 c 0.118,0.502 0.252,1.001 0.4,1.496 l -0.948,0.254 c -0.148,-0.495 -0.281,-0.994 -0.4,-1.496 z m 52.35,-5.344 H 82.29 c 0.016,-0.516 0.016,-1.032 0,-1.548 h 0.982 c 0.015,0.516 0.015,1.032 0,1.548 z M 30.218,237.706 H 31.2 c -0.016,0.516 -0.016,1.032 0,1.548 h -0.982 c -0.015,-0.516 -0.015,-1.032 0,-1.548 z m 52.35,-5.344 -0.948,0.254 c -0.118,-0.502 -0.252,-1.001 -0.4,-1.495 l 0.948,-0.254 c 0.148,0.494 0.281,0.993 0.4,1.495 z m -51.246,-1.495 0.948,0.254 c -0.148,0.494 -0.282,0.993 -0.4,1.495 l -0.948,-0.254 c 0.119,-0.502 0.252,-1.001 0.4,-1.495 z m 48.783,-4.98 -0.85,0.491 c -0.244,-0.455 -0.503,-0.902 -0.774,-1.341 l 0.85,-0.491 c 0.271,0.439 0.529,0.887 0.774,1.341 z m -45.946,-1.341 0.85,0.491 c -0.271,0.439 -0.53,0.886 -0.774,1.341 l -0.85,-0.491 c 0.245,-0.454 0.503,-0.902 0.774,-1.341 z m 41.891,-4.276 -0.694,0.694 c -0.354,-0.376 -0.719,-0.741 -1.095,-1.095 l 0.694,-0.694 c 0.375,0.354 0.741,0.72 1.095,1.095 z m -37.515,-1.095 0.694,0.694 c -0.376,0.354 -0.741,0.719 -1.095,1.095 L 37.44,220.27 c 0.354,-0.375 0.72,-0.741 1.095,-1.095 z m 32.144,-3.281 -0.491,0.85 c -0.439,-0.271 -0.886,-0.53 -1.341,-0.774 l 0.491,-0.85 c 0.454,0.245 0.902,0.503 1.341,0.774 z m -26.527,-0.774 0.491,0.85 c -0.455,0.244 -0.902,0.503 -1.341,0.774 l -0.491,-0.85 c 0.439,-0.271 0.887,-0.529 1.341,-0.774 z m 20.207,-2.063 -0.255,0.948 c -0.494,-0.148 -0.993,-0.282 -1.495,-0.4 l 0.254,-0.948 c 0.502,0.119 1.001,0.252 1.496,0.4 z m -13.732,-0.4 0.254,0.948 c -0.502,0.118 -1.001,0.252 -1.495,0.4 l -0.255,-0.948 c 0.495,-0.148 0.994,-0.281 1.496,-0.4 z m 25.407,-1.96 c -0.326,0.403 -0.664,0.82 -1.005,1.201 -0.922,1.139 -2.564,1.381 -3.776,0.555 -4.302,-2.83 -9.355,-4.355 -14.543,-4.355 -5.187,0 -10.24,1.525 -14.529,4.375 -1.222,0.832 -2.878,0.589 -3.809,-0.559 -0.321,-0.397 -0.659,-0.814 -0.968,-1.231 -0.494,-0.61 -0.711,-1.398 -0.6,-2.175 0.112,-0.776 0.541,-1.472 1.187,-1.918 5.52,-3.695 12.031,-5.687 18.719,-5.687 6.688,0 13.2,1.992 18.734,5.667 0.65,0.45 1.083,1.151 1.195,1.935 0.112,0.783 -0.107,1.577 -0.605,2.192 z m -2.968,-2.088 -1.788,-1.048 1.085,-1.85 -0.967,-0.567 -2.834,4.832 0.967,0.567 1.182,-2.016 1.788,1.049 -1.182,2.015 0.966,0.567 2.834,-4.832 -0.967,-0.567 z m -32.065,0.929 0.025,-0.006 c 0.601,-0.142 1.041,-0.089 1.203,0.169 0.077,0.122 0.175,0.561 -0.218,0.809 -0.21,0.132 -0.772,0.486 -1.61,0.267 l -0.281,1.085 c 0.543,0.141 1.071,0.139 1.583,0.005 0.403,-0.111 0.695,-0.277 0.905,-0.409 0.427,-0.269 0.702,-0.688 0.783,-1.175 0.071,-0.413 -0.005,-0.848 -0.214,-1.18 -0.213,-0.338 -0.542,-0.575 -0.957,-0.692 -0.41,-0.111 -0.894,-0.099 -1.446,0.031 -0.049,0.012 -0.098,0.024 -0.161,0.045 -0.502,0.165 -0.756,0.136 -0.917,-0.103 -0.104,-0.152 -0.104,-0.256 -0.089,-0.322 0.041,-0.206 0.248,-0.403 0.309,-0.441 0.413,-0.26 0.69,-0.255 1.119,-0.251 l 0.237,0.002 -0.013,-1.117 -0.22,-0.004 c -0.486,-0.006 -1.03,-0.013 -1.721,0.422 -0.243,0.154 -0.687,0.575 -0.809,1.163 -0.081,0.411 0.006,0.819 0.265,1.186 0.306,0.44 0.747,0.674 1.284,0.685 0.386,0.012 0.724,-0.097 0.905,-0.154 z m 7.862,-1.068 1.051,-0.388 -1.942,-5.263 -0.368,0.136 -1.455,2.806 -2.937,-1.185 -0.36,0.133 1.942,5.263 1.051,-0.388 -1.188,-3.221 2.016,0.817 1.002,-1.931 z m 16.723,-5.578 -0.371,1.057 1.472,0.518 -1.489,4.235 1.056,0.372 1.49,-4.236 1.464,0.515 0.372,-1.057 z m -4.397,-0.946 c -1.586,-0.216 -3.054,0.901 -3.27,2.487 -0.216,1.585 0.901,3.054 2.486,3.27 1.586,0.215 3.055,-0.901 3.271,-2.487 0.215,-1.586 -0.901,-3.054 -2.487,-3.27 z m -0.155,1.142 c 0.959,0.13 1.63,1.013 1.5,1.973 -0.131,0.959 -1.014,1.63 -1.973,1.5 -0.96,-0.131 -1.631,-1.014 -1.5,-1.973 0.13,-0.959 1.013,-1.631 1.973,-1.5 z m -7.908,-1.246 c -1.591,0.174 -2.745,1.613 -2.571,3.204 0.175,1.591 1.613,2.745 3.204,2.571 1.591,-0.175 2.746,-1.613 2.571,-3.204 -0.174,-1.591 -1.613,-2.746 -3.204,-2.571 z m 0.126,1.145 c 0.962,-0.105 1.827,0.589 1.933,1.551 0.105,0.963 -0.589,1.828 -1.551,1.933 -0.963,0.106 -1.828,-0.588 -1.933,-1.551 -0.106,-0.962 0.588,-1.827 1.551,-1.933 z m 4.267,8.966 v 0.982 c -0.516,-0.016 -1.032,-0.016 -1.548,0 v -0.982 c 0.516,-0.015 1.032,-0.015 1.548,0 z m 11.819,-19.654 -0.491,-0.85 c 0.455,-0.244 0.902,-0.502 1.341,-0.774 l 0.491,0.85 c -0.439,0.271 -0.887,0.529 -1.341,0.774 z m -26.527,-0.774 0.491,-0.85 c 0.439,0.272 0.886,0.53 1.341,0.774 l -0.491,0.85 c -0.454,-0.245 -0.902,-0.503 -1.341,-0.774 z m -5.371,-4.376 0.694,-0.694 c 0.354,0.376 0.719,0.741 1.095,1.095 l -0.694,0.694 c -0.375,-0.354 -0.741,-0.719 -1.095,-1.095 z m 37.515,1.095 -0.694,-0.694 c 0.376,-0.354 0.741,-0.719 1.095,-1.095 l 0.694,0.694 c -0.354,0.376 -0.72,0.741 -1.095,1.095 z m -41.57,-6.712 0.85,-0.49 c 0.244,0.454 0.503,0.901 0.774,1.34 l -0.85,0.491 c -0.271,-0.439 -0.529,-0.886 -0.774,-1.341 z m 45.946,1.341 -0.85,-0.491 c 0.271,-0.439 0.53,-0.886 0.774,-1.34 l 0.85,0.49 c -0.245,0.455 -0.503,0.902 -0.774,1.341 z m 2.837,-6.32 -0.948,-0.254 c 0.148,-0.495 0.282,-0.993 0.4,-1.496 l 0.948,0.254 c -0.119,0.502 -0.252,1.001 -0.4,1.496 z m -51.246,-1.496 0.948,-0.254 c 0.118,0.503 0.252,1.001 0.4,1.496 l -0.948,0.254 c -0.148,-0.495 -0.281,-0.994 -0.4,-1.496 z m 52.35,-5.343 H 82.29 c 0.016,-0.517 0.016,-1.033 0,-1.549 h 0.982 c 0.015,0.516 0.015,1.032 0,1.549 z M 30.218,168.165 H 31.2 c -0.016,0.516 -0.016,1.032 0,1.549 h -0.982 c -0.015,-0.517 -0.015,-1.033 0,-1.549 z m 52.35,-5.344 -0.948,0.254 c -0.118,-0.502 -0.252,-1.001 -0.4,-1.495 l 0.948,-0.254 c 0.148,0.494 0.281,0.993 0.4,1.495 z m -51.246,-1.495 0.948,0.254 c -0.148,0.494 -0.282,0.993 -0.4,1.495 l -0.948,-0.254 c 0.119,-0.502 0.252,-1.001 0.4,-1.495 z m 48.783,-4.98 -0.85,0.491 c -0.244,-0.455 -0.503,-0.902 -0.774,-1.341 l 0.85,-0.491 c 0.271,0.44 0.529,0.887 0.774,1.341 z m -45.946,-1.341 0.85,0.491 c -0.271,0.439 -0.53,0.886 -0.774,1.341 l -0.85,-0.491 c 0.245,-0.454 0.503,-0.901 0.774,-1.341 z m 41.891,-4.276 -0.694,0.694 c -0.354,-0.376 -0.719,-0.741 -1.095,-1.095 l 0.694,-0.694 c 0.375,0.355 0.741,0.72 1.095,1.095 z m -37.515,-1.095 0.694,0.694 c -0.376,0.354 -0.741,0.719 -1.095,1.095 l -0.694,-0.694 c 0.354,-0.375 0.72,-0.74 1.095,-1.095 z m 32.144,-3.281 -0.491,0.85 c -0.439,-0.271 -0.886,-0.529 -1.341,-0.774 l 0.491,-0.85 c 0.454,0.245 0.902,0.503 1.341,0.774 z m -26.527,-0.774 0.491,0.85 c -0.455,0.245 -0.902,0.503 -1.341,0.774 l -0.491,-0.85 c 0.439,-0.271 0.887,-0.529 1.341,-0.774 z m 20.207,-2.062 -0.255,0.948 c -0.494,-0.149 -0.993,-0.283 -1.495,-0.401 l 0.254,-0.948 c 0.502,0.119 1.001,0.253 1.496,0.401 z m -13.732,-0.401 0.254,0.948 c -0.502,0.118 -1.001,0.252 -1.495,0.401 l -0.255,-0.948 c 0.495,-0.148 0.994,-0.282 1.496,-0.401 z m 25.407,-1.774 c -0.326,0.403 -0.664,0.82 -1.005,1.201 -0.922,1.14 -2.564,1.381 -3.776,0.556 -4.302,-2.831 -9.355,-4.355 -14.543,-4.355 -5.187,0 -10.24,1.524 -14.529,4.374 -1.222,0.833 -2.878,0.59 -3.809,-0.559 -0.321,-0.397 -0.659,-0.814 -0.968,-1.231 -0.494,-0.61 -0.711,-1.398 -0.6,-2.174 0.112,-0.777 0.541,-1.472 1.187,-1.919 5.52,-3.694 12.031,-5.686 18.719,-5.686 6.688,0 13.2,1.992 18.734,5.667 0.65,0.45 1.083,1.151 1.195,1.934 0.112,0.783 -0.107,1.578 -0.605,2.192 z m -2.619,-1.863 -1.773,-1.072 1.109,-1.835 -0.958,-0.58 -2.899,4.793 0.958,0.58 1.21,-2 1.773,1.073 -1.209,1.999 0.959,0.58 2.899,-4.793 -0.959,-0.58 z m -32.741,0.915 0.025,-0.007 c 0.599,-0.15 1.04,-0.102 1.205,0.153 0.079,0.121 0.182,0.559 -0.208,0.812 -0.208,0.135 -0.765,0.497 -1.606,0.288 l -0.266,1.089 c 0.544,0.134 1.072,0.125 1.583,-0.016 0.401,-0.117 0.691,-0.286 0.899,-0.421 0.423,-0.275 0.693,-0.697 0.768,-1.185 0.065,-0.414 -0.017,-0.848 -0.23,-1.177 -0.218,-0.336 -0.55,-0.568 -0.966,-0.68 -0.411,-0.105 -0.896,-0.087 -1.446,0.051 -0.049,0.013 -0.098,0.025 -0.16,0.047 -0.499,0.171 -0.754,0.146 -0.918,-0.092 -0.107,-0.15 -0.108,-0.254 -0.093,-0.321 0.038,-0.205 0.242,-0.405 0.303,-0.444 0.409,-0.266 0.686,-0.265 1.115,-0.266 l 0.237,-0.001 -0.028,-1.117 -0.22,-0.001 c -0.486,0.001 -1.029,0.001 -1.714,0.445 -0.242,0.157 -0.68,0.584 -0.794,1.173 -0.076,0.412 0.016,0.819 0.281,1.182 0.311,0.437 0.755,0.665 1.292,0.669 0.386,0.007 0.723,-0.106 0.903,-0.166 z m 1.371,-4.598 0.437,1.032 1.437,-0.609 1.75,4.135 1.032,-0.437 -1.75,-4.134 1.43,-0.605 -0.437,-1.032 z m 27.526,-0.299 c -0.341,-0.527 -0.853,-0.953 -1.488,-1.175 -1.51,-0.53 -3.173,0.269 -3.702,1.78 -0.53,1.51 0.269,3.172 1.779,3.702 0.665,0.233 1.361,0.206 1.975,-0.02 l -0.407,-1.016 c -1.262,0.406 -2.691,-0.766 -2.169,-2.253 0.498,-1.42 2.263,-1.496 3.057,-0.471 z m -19.449,-1.296 c 0.305,-0.067 0.602,0.13 0.669,0.434 0.067,0.305 -0.122,0.601 -0.427,0.668 l -0.422,0.092 0.241,1.095 1.506,1.971 1.164,-0.256 -1.601,-2.106 c 0.514,-0.383 0.78,-1.04 0.634,-1.704 -0.199,-0.907 -1.097,-1.488 -2.004,-1.289 l -2.142,0.471 1.204,5.479 1.094,-0.241 -0.963,-4.384 z m 8.994,-1.789 -0.152,1.11 1.546,0.212 -0.611,4.448 1.11,0.152 0.611,-4.448 1.538,0.212 0.152,-1.11 z m -5.427,5.697 3.709,-0.158 -0.048,-1.12 -3.709,0.159 z m -0.1,-2.326 3.094,-0.133 -0.048,-1.119 -3.094,0.133 z m 3.593,-3.438 -3.733,0.16 0.048,1.119 3.733,-0.16 z m 0.337,10.067 v 0.982 c -0.516,-0.016 -1.032,-0.016 -1.548,0 v -0.982 c 0.516,-0.015 1.032,-0.015 1.548,0 z m 43.918,-10.519 c -0.39,-0.39 -0.39,-1.024 0,-1.415 0.39,-0.39 1.024,-0.39 1.415,0 l 3.708,3.709 -3.708,3.708 c -0.391,0.39 -1.025,0.39 -1.415,0 -0.39,-0.39 -0.39,-1.024 0,-1.415 l 2.294,-2.293 z m -89.453,4.587 c 0.39,0.391 0.39,1.025 0,1.415 -0.391,0.39 -1.025,0.39 -1.415,0 l -3.708,-3.708 3.708,-3.709 c 0.39,-0.39 1.024,-0.39 1.415,0 0.39,0.391 0.39,1.025 0,1.415 l -2.294,2.294 z m 21.969,-16.87 v 2.751 c 0,0.759 -0.617,1.375 -1.376,1.375 h -5.928 c -0.759,0 -1.375,-0.616 -1.375,-1.375 v -2.751 c 0,-0.759 0.616,-1.375 1.375,-1.375 h 5.928 c 0.759,0 1.376,0.616 1.376,1.375 z m -5.554,2.372 c 0.004,0.416 0.13,0.737 0.379,0.963 0.233,0.223 0.511,0.337 0.834,0.341 0.333,-0.004 0.615,-0.118 0.848,-0.341 0.237,-0.226 0.36,-0.547 0.367,-0.963 v -1.996 c -0.007,-0.418 -0.13,-0.74 -0.367,-0.965 -0.233,-0.224 -0.515,-0.336 -0.848,-0.336 -0.323,0 -0.601,0.112 -0.834,0.336 -0.249,0.225 -0.375,0.547 -0.379,0.965 z m 1.815,-0.037 c -0.012,0.457 -0.213,0.688 -0.602,0.692 -0.392,-0.004 -0.591,-0.235 -0.599,-0.692 v -1.919 c 0.008,-0.453 0.207,-0.684 0.599,-0.692 0.389,0.008 0.59,0.239 0.602,0.692 z m 57.979,-2.335 v 2.751 c 0,0.759 -0.617,1.375 -1.376,1.375 H 80.89 c -0.759,0 -1.376,-0.616 -1.376,-1.375 v -2.751 c 0,-0.759 0.617,-1.375 1.376,-1.375 h 5.927 c 0.759,0 1.376,0.616 1.376,1.375 z m -3.172,0.376 v 1.996 c 0.004,0.416 0.133,0.737 0.388,0.963 0.24,0.223 0.525,0.337 0.857,0.341 0.342,-0.004 0.632,-0.118 0.871,-0.341 0.243,-0.226 0.369,-0.547 0.377,-0.963 v -1.996 c -0.008,-0.418 -0.134,-0.74 -0.377,-0.965 -0.239,-0.224 -0.529,-0.336 -0.871,-0.336 -0.332,0 -0.617,0.112 -0.857,0.336 -0.255,0.225 -0.384,0.547 -0.388,0.965 z m 1.863,0.04 v 1.919 c -0.012,0.457 -0.218,0.688 -0.618,0.692 -0.402,-0.004 -0.607,-0.235 -0.615,-0.692 v -1.919 c 0.008,-0.453 0.213,-0.684 0.615,-0.692 0.4,0.008 0.606,0.239 0.618,0.692 z m -4.879,-0.04 v 1.996 c 0.004,0.416 0.133,0.737 0.389,0.963 0.239,0.223 0.524,0.337 0.856,0.341 0.342,-0.004 0.632,-0.118 0.871,-0.341 0.244,-0.226 0.369,-0.547 0.377,-0.963 v -1.996 c -0.008,-0.418 -0.133,-0.74 -0.377,-0.965 -0.239,-0.224 -0.529,-0.336 -0.871,-0.336 -0.332,0 -0.617,0.112 -0.856,0.336 -0.256,0.225 -0.385,0.547 -0.389,0.965 z m 1.863,0.04 v 1.919 c -0.012,0.457 -0.218,0.688 -0.618,0.692 -0.402,-0.004 -0.607,-0.235 -0.615,-0.692 v -1.919 c 0.008,-0.453 0.213,-0.684 0.615,-0.692 0.4,0.008 0.606,0.239 0.618,0.692 z m -3.675,-0.145 0.624,-0.472 v 3.84 h 0.63 v -4.526 h -0.63 l -0.624,0.468 z m -37.203,1.713 0.312,-0.54 c 0.439,0.271 0.886,0.53 1.341,0.774 l -0.491,0.85 c -0.278,-0.15 -0.554,-0.305 -0.827,-0.465 l -0.704,1.223 c -0.053,0.093 -0.153,0.15 -0.26,0.15 h -5.615 c -0.165,0 -0.3,-0.134 -0.3,-0.3 0,-0.165 0.135,-0.3 0.3,-0.3 h 5.441 z m 27.517,0.012 0.794,1.38 h 5.443 c 0.165,0 0.3,0.135 0.3,0.3 0,0.166 -0.135,0.3 -0.3,0.3 h -5.616 c -0.107,0 -0.207,-0.057 -0.26,-0.15 l -0.704,-1.223 c -0.272,0.16 -0.548,0.315 -0.826,0.465 l -0.491,-0.85 c 0.455,-0.244 0.902,-0.503 1.341,-0.774 z m 4.448,-2.983 -0.694,-0.694 c 0.376,-0.354 0.741,-0.719 1.095,-1.095 l 0.694,0.694 c -0.354,0.375 -0.72,0.741 -1.095,1.095 z m -37.515,-1.095 0.694,-0.694 c 0.354,0.376 0.719,0.741 1.095,1.095 l -0.694,0.694 c -0.375,-0.354 -0.741,-0.72 -1.095,-1.095 z m 41.891,-4.276 -0.85,-0.491 c 0.271,-0.439 0.53,-0.886 0.774,-1.341 l 0.85,0.491 c -0.245,0.454 -0.503,0.902 -0.774,1.341 z m -45.946,-1.341 0.85,-0.491 c 0.244,0.455 0.503,0.902 0.774,1.341 l -0.85,0.491 c -0.271,-0.439 -0.529,-0.887 -0.774,-1.341 z m 48.783,-4.979 -0.948,-0.254 c 0.148,-0.495 0.282,-0.994 0.4,-1.496 l 0.948,0.254 c -0.119,0.502 -0.252,1.001 -0.4,1.496 z m -51.246,-1.496 0.948,-0.254 c 0.118,0.502 0.252,1.001 0.4,1.496 l -0.948,0.254 c -0.148,-0.495 -0.281,-0.994 -0.4,-1.496 z m 52.35,-5.344 H 82.29 c 0.016,-0.516 0.016,-1.032 0,-1.548 h 0.982 c 0.015,0.516 0.015,1.032 0,1.548 z M 30.218,98.544 H 31.2 c -0.016,0.516 -0.016,1.032 0,1.548 h -0.982 c -0.015,-0.516 -0.015,-1.032 0,-1.548 z M 82.568,93.2 81.62,93.454 c -0.118,-0.502 -0.252,-1.001 -0.4,-1.495 l 0.948,-0.254 c 0.148,0.494 0.281,0.993 0.4,1.495 z m -51.246,-1.495 0.948,0.254 c -0.148,0.494 -0.282,0.993 -0.4,1.495 L 30.922,93.2 c 0.119,-0.502 0.252,-1.001 0.4,-1.495 z m 48.783,-4.98 -0.85,0.491 c -0.244,-0.455 -0.503,-0.902 -0.774,-1.341 l 0.85,-0.491 c 0.271,0.439 0.529,0.887 0.774,1.341 z m -45.946,-1.341 0.85,0.491 c -0.271,0.439 -0.53,0.886 -0.774,1.341 l -0.85,-0.491 c 0.245,-0.454 0.503,-0.902 0.774,-1.341 z m 41.891,-4.276 -0.694,0.694 c -0.354,-0.376 -0.719,-0.741 -1.095,-1.095 l 0.694,-0.694 c 0.375,0.354 0.741,0.72 1.095,1.095 z m -37.515,-1.095 0.694,0.694 c -0.376,0.354 -0.741,0.719 -1.095,1.095 L 37.44,81.108 c 0.354,-0.375 0.72,-0.741 1.095,-1.095 z m 32.144,-3.281 -0.491,0.85 c -0.439,-0.271 -0.886,-0.53 -1.341,-0.774 l 0.491,-0.85 c 0.454,0.245 0.902,0.503 1.341,0.774 z m -26.527,-0.774 0.491,0.85 c -0.455,0.244 -0.902,0.503 -1.341,0.774 l -0.491,-0.85 c 0.439,-0.271 0.887,-0.529 1.341,-0.774 z m 20.207,-2.063 -0.255,0.948 c -0.494,-0.148 -0.993,-0.282 -1.495,-0.4 l 0.254,-0.948 c 0.502,0.119 1.001,0.252 1.496,0.4 z m -13.732,-0.4 0.254,0.948 c -0.502,0.118 -1.001,0.252 -1.495,0.4 l -0.255,-0.948 c 0.495,-0.148 0.994,-0.281 1.496,-0.4 z m 25.407,-1.477 c -0.326,0.403 -0.664,0.82 -1.005,1.201 -0.922,1.14 -2.564,1.381 -3.776,0.556 -4.302,-2.831 -9.355,-4.355 -14.543,-4.355 -5.187,0 -10.24,1.524 -14.529,4.374 -1.222,0.833 -2.878,0.589 -3.809,-0.559 -0.321,-0.397 -0.659,-0.814 -0.968,-1.231 -0.494,-0.61 -0.711,-1.398 -0.6,-2.174 0.112,-0.777 0.541,-1.472 1.187,-1.919 5.52,-3.695 12.031,-5.686 18.719,-5.686 6.688,0 13.2,1.991 18.734,5.667 0.65,0.45 1.083,1.151 1.195,1.934 0.112,0.783 -0.107,1.578 -0.605,2.192 z m -34.644,1.436 3.199,-1.884 -0.568,-0.966 -3.2,1.885 z m 26.95,-2.148 3.239,1.816 0.548,-0.977 -3.239,-1.816 z m -28.132,0.141 2.669,-1.571 -0.569,-0.966 -2.669,1.572 z m 4.4,-5.965 -1.046,0.4 2,5.232 2.997,-1.145 -0.397,-1.039 -1.951,0.745 z m 24.871,3.793 2.701,1.515 0.548,-0.977 -2.701,-1.515 z m -3.989,-4.997 -0.369,1.058 1.474,0.513 -1.476,4.24 1.058,0.368 1.476,-4.24 1.466,0.511 0.368,-1.058 z m -16.091,5.431 3.637,-0.751 -0.227,-1.097 -3.636,0.751 z m 12.568,-6.13 -3.722,5.077 1.24,0.202 2.262,-3.085 1.031,3.622 1.225,0.2 -1.712,-5.963 z m -20.204,3.145 -3.22,1.896 0.569,0.966 3.22,-1.897 z m 32.581,1.517 -3.26,-1.828 -0.548,0.977 3.26,1.828 z m -17.811,0.531 2.453,-5.644 -1.24,0.017 -1.413,3.204 -1.508,-3.165 -1.24,0.017 2.612,5.575 z m -7.605,-1.343 3.033,-0.627 -0.226,-1.097 -3.033,0.626 z m 2.997,-3.969 -3.66,0.755 0.227,1.098 3.659,-0.756 z m 5.594,9.331 v 0.982 c -0.516,-0.016 -1.032,-0.016 -1.548,0 v -0.982 c 0.516,-0.015 1.032,-0.015 1.548,0 z"
   style="fill:#ffffff"
   id="path3-7" />
        </g>
    </g></g></g><g
     inkscape:groupmode="layer"
     id="layer2"
     inkscape:label="components"
     style="display:none"><ellipse
       style="display:inline;vector-effect:none;fill:#ff0000;fill-opacity:1;fill-rule:evenodd;stroke:none;stroke-width:0.92274;stroke-linecap:butt;stroke-linejoin:miter;stroke-miterlimit:4;stroke-dasharray:none;stroke-dashoffset:0;stroke-opacity:1;paint-order:normal"
       id="path4954-8"
       cx="15.263424"
       cy="81.505714"
       inkscape:label="knob4"
       rx="3.6993217"
       ry="3.6826174" /><ellipse
       style="display:inline;opacity:1;vector-effect:none;fill:#ff0000;fill-opacity:1;fill-rule:evenodd;stroke:none;stroke-width:0.916469;stroke-linecap:butt;stroke-linejoin:miter;stroke-miterlimit:4;stroke-dasharray:none;stroke-dashoffset:0;stroke-opacity:1;paint-order:normal"
       id="path4954"
       cx="15.223296"
       cy="63.084991"
       inkscape:label="knob3"
       rx="3.6492088"
       ry="3.6826174" /><ellipse
       style="display:inline;vector-effect:none;fill:#ff0000;fill-opacity:1;fill-rule:evenodd;stroke:none;stroke-width:0.918545;stroke-linecap:butt;stroke-linejoin:miter;stroke-miterlimit:4;stroke-dasharray:none;stroke-dashoffset:0;stroke-opacity:1;paint-order:normal"
       id="path4954-0"
       cx="15.246136"
       cy="44.664997"
       inkscape:label="knob2"
       rx="3.6993217"
       ry="3.6492088" /><ellipse
       style="display:inline;vector-effect:none;fill:#ff0000;fill-opacity:1;fill-rule:evenodd;stroke:none;stroke-width:0.908117;stroke-linecap:butt;stroke-linejoin:miter;stroke-miterlimit:4;stroke-dasharray:none;stroke-dashoffset:0;stroke-opacity:1;paint-order:normal"
       id="path4954-0-9"
       cx="15.238664"
       cy="26.298275"
       inkscape:label="knob1"
       rx="3.6158001"
       ry="3.6492088" /><ellipse
       cy="98.447197"
       cx="6.664711"
       id="circle4956"
       style="display:inline;opacity:1;vector-effect:none;fill:#00ff00;fill-opacity:1;fill-rule:evenodd;stroke:none;stroke-width:0.82245;stroke-linecap:butt;stroke-linejoin:miter;stroke-miterlimit:4;stroke-dasharray:none;stroke-dashoffset:0;stroke-opacity:1;paint-order:normal"
       inkscape:label="in1"
       rx="3.3318262"
       ry="3.2483044" /><ellipse
       style="display:inline;opacity:1;vector-effect:none;fill:#0000ff;fill-opacity:1;fill-rule:evenodd;stroke:none;stroke-width:0.784928;stroke-linecap:butt;stroke-linejoin:miter;stroke-miterlimit:4;stroke-dasharray:none;stroke-dashoffset:0;stroke-opacity:1;paint-order:normal"
       id="circle4958"
       cx="23.630955"
       cy="98.539642"
       inkscape:label="out1"
       rx="3.1313741"
       ry="3.1480782" /><ellipse
       style="display:inline;vector-effect:none;fill:#0000ff;fill-opacity:1;fill-rule:evenodd;stroke:none;stroke-width:0.782799;stroke-linecap:butt;stroke-linejoin:miter;stroke-miterlimit:4;stroke-dasharray:none;stroke-dashoffset:0;stroke-opacity:1;paint-order:normal"
       id="circle4958-2"
       cx="6.8360405"
       cy="110.02372"
       inkscape:label="out2"
       rx="3.0979652"
       ry="3.1647828" /><ellipse
       style="display:inline;vector-effect:none;fill:#0000ff;fill-opacity:1;fill-rule:evenodd;stroke:none;stroke-width:0.766037;stroke-linecap:butt;stroke-linejoin:miter;stroke-miterlimit:4;stroke-dasharray:none;stroke-dashoffset:0;stroke-opacity:1;paint-order:normal"
       id="circle4958-9"
       cx="23.593861"
       cy="110.02246"
       inkscape:label="out3"
       rx="3.1146698"
       ry="3.0144436" /><ellipse
       inkscape:label="blink"
       cy="104.27022"
       cx="15.245373"
       id="circle66"
       style="display:inline;opacity:1;vector-effect:none;fill:#ff00ff;fill-opacity:1;fill-rule:evenodd;stroke:none;stroke-width:0.638683;stroke-linecap:butt;stroke-linejoin:miter;stroke-miterlimit:4;stroke-dasharray:none;stroke-dashoffset:0;stroke-opacity:1;paint-order:normal"
       rx="2.5968349"
       ry="2.5133131" /></g></svg>
